<?xml version="1.0" encoding="UTF-8"?>
<!--Generator: Apple Native CoreSVG 175.5-->
<!DOCTYPE svg
PUBLIC "-//W3C//DTD SVG 1.1//EN"
       "http://www.w3.org/Graphics/SVG/1.1/DTD/svg11.dtd">
<svg version="1.1" xmlns="http://www.w3.org/2000/svg" xmlns:xlink="http://www.w3.org/1999/xlink" width="3300" height="2200">
 <!--glyph: "", point size: 100.0, font version: "18.0d12e2", template writer version: "101"-->
 <style>.monochrome-0 {fill:#000000}

.SFSymbolsPreview000000 {fill:#000000;opacity:1.0}
</style>
 <g id="Notes">
  <rect height="2200" id="artboard" style="fill:white;opacity:1" width="3300" x="0" y="0"/>
  <line style="fill:none;stroke:black;opacity:1;stroke-width:0.5;" x1="263" x2="3036" y1="292" y2="292"/>
  <text style="stroke:none;fill:black;font-family:sans-serif;font-size:13;font-weight:bold;" transform="matrix(1 0 0 1 263 322)">Weight/Scale Variations</text>
  <text style="stroke:none;fill:black;font-family:sans-serif;font-size:13;text-anchor:middle;" transform="matrix(1 0 0 1 559.711 322)">Ultralight</text>
  <text style="stroke:none;fill:black;font-family:sans-serif;font-size:13;text-anchor:middle;" transform="matrix(1 0 0 1 856.422 322)">Thin</text>
  <text style="stroke:none;fill:black;font-family:sans-serif;font-size:13;text-anchor:middle;" transform="matrix(1 0 0 1 1153.13 322)">Light</text>
  <text style="stroke:none;fill:black;font-family:sans-serif;font-size:13;text-anchor:middle;" transform="matrix(1 0 0 1 1449.84 322)">Regular</text>
  <text style="stroke:none;fill:black;font-family:sans-serif;font-size:13;text-anchor:middle;" transform="matrix(1 0 0 1 1746.56 322)">Medium</text>
  <text style="stroke:none;fill:black;font-family:sans-serif;font-size:13;text-anchor:middle;" transform="matrix(1 0 0 1 2043.27 322)">Semibold</text>
  <text style="stroke:none;fill:black;font-family:sans-serif;font-size:13;text-anchor:middle;" transform="matrix(1 0 0 1 2339.98 322)">Bold</text>
  <text style="stroke:none;fill:black;font-family:sans-serif;font-size:13;text-anchor:middle;" transform="matrix(1 0 0 1 2636.69 322)">Heavy</text>
  <text style="stroke:none;fill:black;font-family:sans-serif;font-size:13;text-anchor:middle;" transform="matrix(1 0 0 1 2933.4 322)">Black</text>
  <line style="fill:none;stroke:black;opacity:1;stroke-width:0.5;" x1="263" x2="3036" y1="1903" y2="1903"/>
  <g transform="matrix(1 0 0 1 263 1933)">
   <path d="M9.24805 0.830078C13.5547 0.830078 17.1387-2.74414 17.1387-7.05078C17.1387-11.3574 13.5449-14.9316 9.23828-14.9316C4.94141-14.9316 1.36719-11.3574 1.36719-7.05078C1.36719-2.74414 4.95117 0.830078 9.24805 0.830078ZM9.24805-0.654297C5.70312-0.654297 2.87109-3.49609 2.87109-7.05078C2.87109-10.6055 5.69336-13.4473 9.23828-13.4473C12.793-13.4473 15.6445-10.6055 15.6445-7.05078C15.6445-3.49609 12.8027-0.654297 9.24805-0.654297ZM5.6543-7.05078C5.6543-6.62109 5.95703-6.32812 6.40625-6.32812L8.50586-6.32812L8.50586-4.20898C8.50586-3.76953 8.79883-3.4668 9.22852-3.4668C9.67773-3.4668 9.9707-3.76953 9.9707-4.20898L9.9707-6.32812L12.0898-6.32812C12.5293-6.32812 12.832-6.62109 12.832-7.05078C12.832-7.49023 12.5293-7.79297 12.0898-7.79297L9.9707-7.79297L9.9707-9.90234C9.9707-10.3516 9.67773-10.6543 9.22852-10.6543C8.79883-10.6543 8.50586-10.3516 8.50586-9.90234L8.50586-7.79297L6.40625-7.79297C5.95703-7.79297 5.6543-7.49023 5.6543-7.05078Z"/>
  </g>
  <g transform="matrix(1 0 0 1 281.867 1933)">
   <path d="M11.709 2.91016C17.1582 2.91016 21.6699-1.61133 21.6699-7.05078C21.6699-12.5 17.1484-17.0117 11.6992-17.0117C6.25977-17.0117 1.74805-12.5 1.74805-7.05078C1.74805-1.61133 6.26953 2.91016 11.709 2.91016ZM11.709 1.25C7.09961 1.25 3.41797-2.44141 3.41797-7.05078C3.41797-11.6602 7.08984-15.3516 11.6992-15.3516C16.3086-15.3516 20.0098-11.6602 20.0098-7.05078C20.0098-2.44141 16.3184 1.25 11.709 1.25ZM7.17773-7.05078C7.17773-6.57227 7.50977-6.25 8.00781-6.25L10.8789-6.25L10.8789-3.36914C10.8789-2.88086 11.2109-2.53906 11.6895-2.53906C12.1777-2.53906 12.5195-2.87109 12.5195-3.36914L12.5195-6.25L15.4004-6.25C15.8887-6.25 16.2305-6.57227 16.2305-7.05078C16.2305-7.53906 15.8887-7.88086 15.4004-7.88086L12.5195-7.88086L12.5195-10.752C12.5195-11.25 12.1777-11.5918 11.6895-11.5918C11.2109-11.5918 10.8789-11.25 10.8789-10.752L10.8789-7.88086L8.00781-7.88086C7.50977-7.88086 7.17773-7.53906 7.17773-7.05078Z"/>
  </g>
  <g transform="matrix(1 0 0 1 305.646 1933)">
   <path d="M14.9707 5.66406C21.9336 5.66406 27.6953-0.0976562 27.6953-7.05078C27.6953-14.0137 21.9238-19.7754 14.9609-19.7754C8.00781-19.7754 2.25586-14.0137 2.25586-7.05078C2.25586-0.0976562 8.01758 5.66406 14.9707 5.66406ZM14.9707 3.84766C8.93555 3.84766 4.08203-1.01562 4.08203-7.05078C4.08203-13.0957 8.92578-17.9492 14.9609-17.9492C21.0059-17.9492 25.8691-13.0957 25.8691-7.05078C25.8691-1.01562 21.0156 3.84766 14.9707 3.84766ZM9.19922-7.05078C9.19922-6.5332 9.57031-6.17188 10.1172-6.17188L14.0625-6.17188L14.0625-2.2168C14.0625-1.67969 14.4336-1.29883 14.9512-1.29883C15.4883-1.29883 15.8594-1.66992 15.8594-2.2168L15.8594-6.17188L19.8145-6.17188C20.3516-6.17188 20.7324-6.5332 20.7324-7.05078C20.7324-7.59766 20.3613-7.96875 19.8145-7.96875L15.8594-7.96875L15.8594-11.9141C15.8594-12.4609 15.4883-12.8418 14.9512-12.8418C14.4336-12.8418 14.0625-12.4609 14.0625-11.9141L14.0625-7.96875L10.1172-7.96875C9.57031-7.96875 9.19922-7.59766 9.19922-7.05078Z"/>
  </g>
  <text style="stroke:none;fill:black;font-family:sans-serif;font-size:13;font-weight:bold;" transform="matrix(1 0 0 1 263 1953)">Design Variations</text>
  <text style="stroke:none;fill:black;font-family:sans-serif;font-size:13;" transform="matrix(1 0 0 1 263 1971)">Symbols are supported in up to nine weights and three scales.</text>
  <text style="stroke:none;fill:black;font-family:sans-serif;font-size:13;" transform="matrix(1 0 0 1 263 1989)">For optimal layout with text and other symbols, vertically align</text>
  <text style="stroke:none;fill:black;font-family:sans-serif;font-size:13;" transform="matrix(1 0 0 1 263 2007)">symbols with the adjacent text.</text>
  <line style="fill:none;stroke:#00AEEF;stroke-width:0.5;opacity:1.0;" x1="776" x2="776" y1="1919" y2="1933"/>
  <g transform="matrix(1 0 0 1 776 1933)">
   <path d="M3.31055 0.15625C3.82812 0.15625 4.08203-0.0390625 4.26758-0.585938L5.52734-4.0332L11.2891-4.0332L12.5488-0.585938C12.7344-0.0390625 12.9883 0.15625 13.4961 0.15625C14.0137 0.15625 14.3457-0.15625 14.3457-0.644531C14.3457-0.810547 14.3164-0.966797 14.2383-1.17188L9.6582-13.3691C9.43359-13.9648 9.0332-14.2676 8.4082-14.2676C7.80273-14.2676 7.39258-13.9746 7.17773-13.3789L2.59766-1.16211C2.51953-0.957031 2.49023-0.800781 2.49023-0.634766C2.49023-0.146484 2.80273 0.15625 3.31055 0.15625ZM6.00586-5.51758L8.37891-12.0898L8.42773-12.0898L10.8008-5.51758Z"/>
  </g>
  <line style="fill:none;stroke:#00AEEF;stroke-width:0.5;opacity:1.0;" x1="793.197" x2="793.197" y1="1919" y2="1933"/>
  <text style="stroke:none;fill:black;font-family:sans-serif;font-size:13;font-weight:bold;" transform="matrix(1 0 0 1 776 1953)">Margins</text>
  <text style="stroke:none;fill:black;font-family:sans-serif;font-size:13;" transform="matrix(1 0 0 1 776 1971)">Leading and trailing margins on the left and right side of each symbol</text>
  <text style="stroke:none;fill:black;font-family:sans-serif;font-size:13;" transform="matrix(1 0 0 1 776 1989)">can be adjusted by modifying the x-location of the margin guidelines.</text>
  <text style="stroke:none;fill:black;font-family:sans-serif;font-size:13;" transform="matrix(1 0 0 1 776 2007)">Modifications are automatically applied proportionally to all</text>
  <text style="stroke:none;fill:black;font-family:sans-serif;font-size:13;" transform="matrix(1 0 0 1 776 2025)">scales and weights.</text>
  <g transform="matrix(1 0 0 1 1289 1933)">
   <path d="M2.8418 1.86523L4.54102 3.57422C5.40039 4.44336 6.38672 4.38477 7.31445 3.35938L18.0078-8.42773L17.041-9.4043L6.42578 2.27539C6.07422 2.67578 5.74219 2.77344 5.27344 2.30469L4.10156 1.14258C3.63281 0.683594 3.74023 0.341797 4.14062-0.0195312L15.6152-10.8203L14.6387-11.7871L3.04688-0.898438C2.06055 0.0195312 1.98242 0.996094 2.8418 1.86523ZM9.25781-16.3281C8.83789-15.918 8.80859-15.3418 9.04297-14.9512C9.27734-14.5898 9.73633-14.3555 10.3809-14.5215C11.8457-14.8633 13.3691-14.9219 14.7949-13.9844L14.209-12.5293C13.8672-11.6992 14.043-11.1133 14.5801-10.5664L16.875-8.25195C17.3633-7.76367 17.7734-7.74414 18.3398-7.8418L19.4043-8.03711L20.0684-7.36328L20.0293-6.80664C19.9902-6.30859 20.1172-5.92773 20.6055-5.44922L21.3672-4.70703C21.8457-4.22852 22.4609-4.19922 22.9297-4.66797L25.8398-7.58789C26.3086-8.05664 26.2891-8.65234 25.8105-9.13086L25.0391-9.89258C24.5605-10.3711 24.1895-10.5273 23.7109-10.4883L23.1348-10.4395L22.4902-11.0742L22.7344-12.1973C22.8613-12.7637 22.7051-13.2031 22.1191-13.7891L19.9219-15.9766C16.582-19.2969 12.1484-19.2188 9.25781-16.3281ZM10.752-15.957C13.1836-17.7344 16.4746-17.4316 18.7012-15.2051L21.1328-12.793C21.3672-12.5586 21.4062-12.373 21.3379-12.0312L21.0156-10.5469L22.5195-9.0625L23.5059-9.12109C23.7598-9.13086 23.8379-9.11133 24.0332-8.91602L24.6094-8.33984L22.168-5.89844L21.5918-6.47461C21.3965-6.66992 21.3672-6.74805 21.377-7.01172L21.4453-7.98828L19.9512-9.47266L18.4277-9.21875C18.1055-9.15039 17.959-9.17969 17.7148-9.41406L15.7129-11.416C15.459-11.6504 15.4297-11.8164 15.5859-12.1875L16.4648-14.2773C14.9023-15.7324 12.8711-16.3574 10.8398-15.7617C10.6836-15.7227 10.625-15.8496 10.752-15.957Z"/>
  </g>
  <text style="stroke:none;fill:black;font-family:sans-serif;font-size:13;font-weight:bold;" transform="matrix(1 0 0 1 1289 1953)">Exporting</text>
  <text style="stroke:none;fill:black;font-family:sans-serif;font-size:13;" transform="matrix(1 0 0 1 1289 1971)">Symbols should be outlined when exporting to ensure the</text>
  <text style="stroke:none;fill:black;font-family:sans-serif;font-size:13;" transform="matrix(1 0 0 1 1289 1989)">design is preserved when submitting to Xcode.</text>
  <text id="template-version" style="stroke:none;fill:black;font-family:sans-serif;font-size:13;text-anchor:end;" transform="matrix(1 0 0 1 3036 1933)">Template v.4.0</text>
  <text style="stroke:none;fill:black;font-family:sans-serif;font-size:13;text-anchor:end;" transform="matrix(1 0 0 1 3036 1951)">Requires Xcode 14 or greater</text>
  <text id="descriptive-name" style="stroke:none;fill:black;font-family:sans-serif;font-size:13;text-anchor:end;" transform="matrix(1 0 0 1 3036 1969)">Generated from bucket</text>
  <text style="stroke:none;fill:black;font-family:sans-serif;font-size:13;text-anchor:end;" transform="matrix(1 0 0 1 3036 1987)">Typeset at 100 points</text>
  <text style="stroke:none;fill:black;font-family:sans-serif;font-size:13;" transform="matrix(1 0 0 1 263 726)">Small</text>
  <text style="stroke:none;fill:black;font-family:sans-serif;font-size:13;" transform="matrix(1 0 0 1 263 1156)">Medium</text>
  <text style="stroke:none;fill:black;font-family:sans-serif;font-size:13;" transform="matrix(1 0 0 1 263 1586)">Large</text>
 </g>
 <g id="Guides">
  <g id="H-reference" style="fill:#27AAE1;stroke:none;" transform="matrix(1 0 0 1 339 696)">
   <path d="M0.993654 0L3.63775 0L29.3281-67.1323L30.0303-67.1323L30.0303-70.459L28.1226-70.459ZM11.6885-24.4799L46.9815-24.4799L46.2315-26.7285L12.4385-26.7285ZM55.1196 0L57.7637 0L30.6382-70.459L29.4326-70.459L29.4326-67.1323Z"/>
  </g>
  <line id="Baseline-S" style="fill:none;stroke:#27AAE1;opacity:1;stroke-width:0.5;" x1="263" x2="3036" y1="696" y2="696"/>
  <line id="Capline-S" style="fill:none;stroke:#27AAE1;opacity:1;stroke-width:0.5;" x1="263" x2="3036" y1="625.541" y2="625.541"/>
  <g id="H-reference" style="fill:#27AAE1;stroke:none;" transform="matrix(1 0 0 1 339 1126)">
   <path d="M0.993654 0L3.63775 0L29.3281-67.1323L30.0303-67.1323L30.0303-70.459L28.1226-70.459ZM11.6885-24.4799L46.9815-24.4799L46.2315-26.7285L12.4385-26.7285ZM55.1196 0L57.7637 0L30.6382-70.459L29.4326-70.459L29.4326-67.1323Z"/>
  </g>
  <line id="Baseline-M" style="fill:none;stroke:#27AAE1;opacity:1;stroke-width:0.5;" x1="263" x2="3036" y1="1126" y2="1126"/>
  <line id="Capline-M" style="fill:none;stroke:#27AAE1;opacity:1;stroke-width:0.5;" x1="263" x2="3036" y1="1055.54" y2="1055.54"/>
  <g id="H-reference" style="fill:#27AAE1;stroke:none;" transform="matrix(1 0 0 1 339 1556)">
   <path d="M0.993654 0L3.63775 0L29.3281-67.1323L30.0303-67.1323L30.0303-70.459L28.1226-70.459ZM11.6885-24.4799L46.9815-24.4799L46.2315-26.7285L12.4385-26.7285ZM55.1196 0L57.7637 0L30.6382-70.459L29.4326-70.459L29.4326-67.1323Z"/>
  </g>
  <line id="Baseline-L" style="fill:none;stroke:#27AAE1;opacity:1;stroke-width:0.5;" x1="263" x2="3036" y1="1556" y2="1556"/>
  <line id="Capline-L" style="fill:none;stroke:#27AAE1;opacity:1;stroke-width:0.5;" x1="263" x2="3036" y1="1485.54" y2="1485.54"/>
  <line id="left-margin-Regular-M" style="fill:none;stroke:#00AEEF;stroke-width:0.5;opacity:1.0;" x1="1375.64" x2="1375.64" y1="1030.79" y2="1150.12"/>
  <line id="right-margin-Regular-M" style="fill:none;stroke:#FF3B30;stroke-width:0.5;opacity:1.0;" x1="1524.05" x2="1524.05" y1="1030.79" y2="1150.12"/>
 </g>
 <g id="Symbols">
  <g id="Black-L" transform="matrix(1 0 0 1 2823.85 1556)">
   <path class="monochrome-0 SFSymbolsPreview000000" d="M70.8552 36.386L28.4553-4.963C17.3642-15.5064 17.3369-29.2201 27.4772-39.3719L95.5865-107.009C102.468-113.804 111.773-113.55 118.73-106.92L172.569-54.1882C179.539-47.4689 179.539-37.971 172.796-31.1897L104.687 36.674C94.56 46.826 81.4096 46.408 70.8552 36.386ZM37.6828-30.1645C32.9712-25.4835 33.0606-19.5376 38.1513-14.6915C38.1513-14.6915 44.8897-9.079 76.6455-20.2284C100.897-26.2696 99.8186-17.6553 129-22.8014C150.456-27.0898 161.908-39.704 161.908-39.704C163.521-41.3737 163.646-43.6477 162.018-45.269L109.738-96.4901C108.165-98.0705 106.027-97.9466 104.317-96.3042L37.6828-30.1645ZM224.43-43.1303C216.51-58.0605 194.908-66.8687 179.411-62.4335C175.651-61.4789 174.453-59.4427 175.785-56.9824C176.557-55.5447 177.857-54.6551 179.3-53.6673C181.127-52.4174 183.183-51.0102 184.692-48.1361C186.068-45.5864 185.47-43.2963 184.791-40.6954C183.908-37.3121 182.887-33.4029 185.895-27.7125C190.771-18.205 203.64-13.0238 214.824-16.2342C227.242-19.7367 231.179-30.4625 224.43-43.1303Z"/>
  </g>
  <g id="Heavy-L" transform="matrix(1 0 0 1 2529.72 1556)">
   <path class="monochrome-0 SFSymbolsPreview000000" d="M69.5893 35.926L28.2449-4.737C17.4298-15.1059 17.4032-28.5922 27.2911-38.5758L93.705-105.092C100.415-111.774 109.488-111.525 116.272-105.004L168.771-53.1465C175.568-46.5386 175.568-37.1981 168.992-30.5292L102.579 36.21C92.7041 46.193 79.881 45.782 69.5893 35.926ZM37.2426-29.5211C32.6483-24.9176 32.7355-19.0703 37.6995-14.3045C37.6995-14.3045 44.2701-8.785 75.2355-19.7496C98.8838-25.6907 97.8318-17.2192 126.286-22.28C147.209-26.4973 158.375-38.9024 158.375-38.9024C159.949-40.5444 160.07-42.7807 158.483-44.3752L107.504-94.7472C105.97-96.3014 103.885-96.1796 102.218-94.5644L37.2426-29.5211ZM219.341-42.2719C211.619-56.9546 190.554-65.6168 175.443-61.2552C171.777-60.3163 170.608-58.3139 171.907-55.8943C172.66-54.4805 173.928-53.6057 175.335-52.6342C177.116-51.4051 179.121-50.0212 180.593-47.1947C181.934-44.6873 181.351-42.4351 180.689-39.8773C179.828-36.5501 178.832-32.7058 181.766-27.1097C186.52-17.7597 199.069-12.6644 209.974-15.8216C222.084-19.2661 225.922-29.8141 219.341-42.2719Z"/>
  </g>
  <g id="Bold-L" transform="matrix(1 0 0 1 2234.27 1556)">
   <path class="monochrome-0 SFSymbolsPreview000000" d="M68.9699 35.509L28.1419-4.48C17.4619-14.6774 17.4356-27.9404 27.2-37.7586L92.7843-103.173C99.4108-109.745 108.37-109.499 115.07-103.087L166.912-52.088C173.625-45.5896 173.625-36.4038 167.131-29.8453L101.547 35.788C91.7959 45.607 79.133 45.202 68.9699 35.509ZM37.0272-28.8539C32.4903-24.3266 32.5764-18.5761 37.4784-13.8893C37.4784-13.8893 43.9669-8.4608 74.5455-19.2442C97.8983-25.0869 96.8595-16.7558 124.959-21.7327C145.62-25.8802 156.647-38.0799 156.647-38.0799C158.201-39.6947 158.32-41.8939 156.753-43.462L106.411-92.9998C104.896-94.5283 102.837-94.4084 101.191-92.82L37.0272-28.8539ZM216.851-41.3935C209.225-55.8331 188.423-64.3518 173.501-60.0624C169.881-59.1391 168.727-57.1698 170.009-54.7904C170.753-53.3999 172.005-52.5396 173.395-51.5843C175.153-50.3755 177.133-49.0145 178.587-46.2348C179.911-43.7689 179.336-41.554 178.682-39.0386C177.831-35.7665 176.848-31.9858 179.745-26.4824C184.44-17.2873 196.832-12.2764 207.601-15.3813C219.559-18.7687 223.35-29.1421 216.851-41.3935Z"/>
  </g>
  <g id="Semibold-L" transform="matrix(1 0 0 1 1942.75 1556)">
   <path class="monochrome-0 SFSymbolsPreview000000" d="M66.4308 27.663L27.7197-9.5825C17.5935-19.0802 17.5686-31.4332 26.8267-40.5778L89.0104-101.505C95.2933-107.625 103.788-107.397 110.14-101.424L159.295-53.9241C165.659-47.8715 165.659-39.3159 159.502-33.2074L97.3189 27.923C88.0733 37.068 76.0669 36.691 66.4308 27.663ZM36.1443-32.284C31.8427-28.0674 31.9244-22.7114 36.5721-18.3461C36.5721-18.3461 42.7243-13.2901 71.7173-23.3337C93.8593-28.7755 92.8743-21.0159 119.517-25.6514C139.106-29.5143 149.562-40.877 149.562-40.877C151.035-42.381 151.148-44.4294 149.663-45.8899L101.931-92.0289C100.495-93.4526 98.5423-93.3409 96.981-91.8615L36.1443-32.284ZM206.644-43.9633C199.414-57.4122 179.691-65.3465 165.542-61.3514C162.11-60.4914 161.015-58.6572 162.231-56.441C162.936-55.146 164.123-54.3447 165.441-53.4549C167.109-52.329 168.986-51.0614 170.364-48.4724C171.62-46.1757 171.074-44.1128 170.454-41.77C169.648-38.7224 168.716-35.2011 171.462-30.0753C175.914-21.511 187.663-16.8439 197.874-19.7358C209.212-22.8908 212.806-32.5524 206.644-43.9633Z"/>
  </g>
  <g id="Medium-L" transform="matrix(1 0 0 1 1648.62 1556)">
   <path class="monochrome-0 SFSymbolsPreview000000" d="M65.1674 27.211L27.5097-9.3516C17.659-18.675 17.6347-30.8014 26.641-39.7782L87.1326-99.587C93.2445-105.595 101.508-105.371 107.688-99.5082L155.505-52.8796C161.696-46.9381 161.696-38.5395 155.706-32.5431L95.215 27.466C86.2209 36.443 74.5413 36.073 65.1674 27.211ZM35.705-31.6366C31.5205-27.4973 31.5999-22.2396 36.1212-17.9545C36.1212-17.9545 42.1059-12.9912 70.31-22.8505C91.8495-28.1924 90.8914-20.5753 116.809-25.1257C135.865-28.9177 146.036-40.0719 146.036-40.0719C147.469-41.5483 147.58-43.5591 146.134-44.9928L99.7012-90.2853C98.3043-91.6828 96.4051-91.5732 94.8863-90.1209L35.705-31.6366ZM201.566-43.1016C194.532-56.3037 175.345-64.0924 161.581-60.1706C158.243-59.3265 157.178-57.5259 158.361-55.3504C159.047-54.0791 160.201-53.2925 161.484-52.419C163.106-51.3138 164.932-50.0694 166.272-47.528C167.494-45.2734 166.963-43.2484 166.36-40.9485C165.575-37.9568 164.669-34.5001 167.341-29.4684C171.671-21.0613 183.101-16.4798 193.034-19.3186C204.064-22.4157 207.56-31.9001 201.566-43.1016Z"/>
  </g>
  <g id="Regular-L" transform="matrix(1 0 0 1 1355.77 1556)">
   <path class="monochrome-0 SFSymbolsPreview000000" d="M63.2722 24.306L27.1946-10.8899C17.7572-19.8647 17.734-31.5378 26.3623-40.179L84.3158-97.752C90.1713-103.536 98.0886-103.32 104.008-97.6761L149.819-52.7907C155.751-47.0712 155.751-38.9866 150.012-33.2144L92.0591 24.551C83.4424 33.193 72.2528 32.836 63.2722 24.306ZM35.0461-32.3418C31.0371-28.3573 31.1132-23.2961 35.4448-19.1711C35.4448-19.1711 41.1784-14.3934 68.1991-23.8841C88.8349-29.0264 87.9169-21.694 112.747-26.0743C131.004-29.7246 140.748-40.4618 140.748-40.4618C142.121-41.883 142.227-43.8186 140.842-45.1987L96.3571-88.798C95.0188-90.1432 93.1993-90.0378 91.7442-88.6398L35.0461-32.3418ZM193.947-43.3782C187.209-56.0868 168.827-63.5843 155.641-59.8091C152.442-58.9965 151.423-57.2633 152.556-55.1691C153.213-53.9453 154.319-53.1881 155.547-52.3473C157.101-51.2834 158.851-50.0855 160.135-47.6391C161.306-45.4688 160.797-43.5195 160.219-41.3056C159.467-38.4257 158.599-35.0983 161.159-30.2546C165.307-22.1618 176.258-17.7516 185.774-20.4843C196.341-23.4656 199.69-32.5954 193.947-43.3782Z"/>
  </g>
  <g id="Light-L" transform="matrix(1 0 0 1 1060.35 1556)">
   <path class="monochrome-0 SFSymbolsPreview000000" d="M62.6405 23.853L27.0895-10.659C17.7899-19.4596 17.767-30.906 26.2694-39.3795L83.3769-95.8345C89.1469-101.506 96.9486-101.294 102.782-95.7601L147.924-51.7462C153.769-46.1378 153.769-38.2102 148.114-32.55L91.0072 24.094C82.5163 32.568 71.49 32.218 62.6405 23.853ZM34.8264-31.6943C30.876-27.7872 30.9509-22.8243 35.2193-18.7794C35.2193-18.7794 40.8692-14.0945 67.4955-23.4009C87.83-28.4433 86.9254-21.2533 111.393-25.5486C129.383-29.128 138.985-39.6567 138.985-39.6567C140.338-41.0503 140.442-42.9484 139.078-44.3016L95.2424-87.0543C93.9236-88.3735 92.1307-88.2701 90.6968-86.8992L34.8264-31.6943ZM191.408-42.5165C184.768-54.9783 166.655-62.3302 153.661-58.6283C150.509-57.8315 149.504-56.1319 150.621-54.0784C151.268-52.8784 152.358-52.1359 153.568-51.3114C155.1-50.2682 156.824-49.0936 158.089-46.6946C159.243-44.5665 158.742-42.655 158.172-40.4841C157.431-37.6602 156.576-34.3973 159.098-29.6477C163.186-21.7121 173.977-17.3875 183.354-20.0671C193.766-22.9905 197.067-31.9431 191.408-42.5165Z"/>
  </g>
  <g id="Thin-L" transform="matrix(1 0 0 1 766.217 1556)">
   <path class="monochrome-0 SFSymbolsPreview000000" d="M61.3795 23.408L26.8799-10.4229C17.8553-19.0498 17.8331-30.2702 26.084-38.5763L81.5027-93.9167C87.1021-99.4762 94.6731-99.2685 100.334-93.8438L144.141-50.6989C149.813-45.2013 149.813-37.4301 144.326-31.8817L88.9074 23.644C80.6675 31.95 69.9674 31.608 61.3795 23.408ZM34.388-31.043C30.5543-27.213 30.6271-22.3481 34.7692-18.3831C34.7692-18.3831 40.2521-13.7906 66.0909-22.9133C85.8241-27.8561 84.9463-20.8081 108.69-25.0185C126.149-28.5273 135.467-38.8481 135.467-38.8481C136.78-40.2142 136.881-42.0748 135.557-43.4013L93.0173-85.3099C91.7375-86.603 89.9976-86.5016 88.6062-85.1579L34.388-31.043ZM186.339-41.6514C179.895-53.8672 162.318-61.074 149.708-57.4452C146.649-56.6641 145.674-54.9981 146.758-52.9851C147.386-51.8087 148.444-51.081 149.618-50.2727C151.105-49.2501 152.778-48.0987 154.006-45.7471C155.125-43.661 154.639-41.7872 154.086-39.6592C153.367-36.891 152.537-33.6926 154.984-29.0368C158.952-21.2578 169.423-17.0185 178.523-19.6453C188.628-22.511 191.831-31.2868 186.339-41.6514Z"/>
  </g>
  <g id="Ultralight-L" transform="matrix(1 0 0 1 474.671 1556)">
   <path class="monochrome-0 SFSymbolsPreview000000" d="M58.8503 18.043L26.4594-13.7355C17.9864-21.839 17.9655-32.3788 25.7122-40.1811L77.7434-92.1644C83.0005-97.3866 90.1087-97.1916 95.4237-92.0959L136.553-51.5683C141.878-46.4041 141.878-39.1044 136.726-33.8926L84.6954 18.265C76.9593 26.067 66.9131 25.746 58.8503 18.043ZM33.5085-33.1047C29.9092-29.507 29.9775-24.9373 33.8665-21.2128C33.8665-21.2128 39.0142-16.8989 63.2736-25.4682C81.8007-30.1112 80.9765-23.4907 103.269-27.4457C119.66-30.7416 128.409-40.4364 128.409-40.4364C129.641-41.7196 129.736-43.4673 128.493-44.7134L88.5542-84.0797C87.3526-85.2944 85.719-85.1992 84.4127-83.9369L33.5085-33.1047ZM176.172-43.0696C170.122-54.5444 153.619-61.314 141.78-57.9053C138.908-57.1716 137.993-55.6066 139.01-53.7158C139.6-52.6108 140.593-51.9271 141.696-51.1679C143.091-50.2073 144.662-49.1258 145.815-46.9168C146.866-44.9573 146.409-43.1972 145.89-41.1983C145.215-38.598 144.436-35.5936 146.734-31.2202C150.458-23.9131 160.29-19.931 168.833-22.3984C178.32-25.0903 181.328-33.3337 176.172-43.0696Z"/>
  </g>
  <g id="Black-M" transform="matrix(1 0 0 1 2847.2 1126)">
   <path class="monochrome-0 SFSymbolsPreview000000" d="M59.4208 17.022L26.5542-15.0292C17.9568-23.2023 17.9357-33.8326 25.796-41.7019L78.5913-94.1315C83.9257-99.3986 91.1382-99.2018 96.5312-94.0624L138.264-53.1868C143.668-47.9783 143.668-40.6159 138.441-35.3594L85.6455 17.246C77.7957 25.115 67.602 24.791 59.4208 17.022ZM33.7069-34.5647C30.0547-30.9362 30.124-26.3271 34.0701-22.5707C34.0701-22.5707 39.2934-18.2198 63.9091-26.8626C82.7082-31.5455 81.8719-24.8681 104.492-28.8571C121.124-32.1813 130.001-41.9593 130.001-41.9593C131.252-43.2536 131.348-45.0163 130.086-46.273L89.5609-85.9774C88.3417-87.2025 86.6841-87.1064 85.3585-85.8333L33.7069-34.5647ZM178.465-44.6152C172.326-56.1884 155.581-63.0162 143.568-59.5782C140.654-58.8382 139.725-57.2598 140.757-55.3527C141.356-54.2383 142.364-53.5488 143.483-52.783C144.898-51.8142 146.492-50.7233 147.662-48.4954C148.729-46.5191 148.265-44.7439 147.739-42.7278C147.054-40.1052 146.263-37.075 148.595-32.664C152.374-25.2942 162.35-21.2779 171.019-23.7665C180.645-26.4815 183.697-34.7957 178.465-44.6152Z"/>
  </g>
  <g id="Heavy-M" transform="matrix(1 0 0 1 2552.48 1126)">
   <path class="monochrome-0 SFSymbolsPreview000000" d="M58.4414 19.121L26.3914-12.4007C18.0076-20.4387 17.9869-30.8932 25.652-38.6324L77.1356-90.1954C82.3374-95.3754 89.3708-95.1819 94.6298-90.1275L135.326-49.9275C140.596-44.8051 140.596-37.5644 135.498-32.3948L84.0145 19.341C76.3598 27.08 66.4194 26.761 58.4414 19.121ZM33.3664-31.6132C29.8049-28.0447 29.8725-23.5118 33.7205-19.8174C33.7205-19.8174 38.814-15.5385 62.8182-24.0385C81.1502-28.6439 80.3347-22.0769 102.393-26C118.612-29.2692 127.268-38.8856 127.268-38.8856C128.487-40.1585 128.581-41.892 127.351-43.128L87.8327-82.1761C86.6437-83.3809 85.0274-83.2865 83.7347-82.0344L33.3664-31.6132ZM174.528-41.4976C168.542-52.8795 152.212-59.5944 140.498-56.2133C137.656-55.4855 136.751-53.9332 137.757-52.0576C138.341-50.9616 139.324-50.2835 140.415-49.5304C141.795-48.5776 143.35-47.5048 144.49-45.3137C145.53-43.37 145.078-41.6241 144.565-39.6413C143.897-37.0621 143.126-34.082 145.4-29.744C149.085-22.4959 158.813-18.5461 167.267-20.9935C176.654-23.6636 179.63-31.8404 174.528-41.4976Z"/>
  </g>
  <g id="Bold-M" transform="matrix(1 0 0 1 2256.77 1126)">
   <path class="monochrome-0 SFSymbolsPreview000000" d="M57.9517 17.22L26.31-13.7721C18.033-21.675 18.0126-31.9538 25.58-39.5629L76.4078-90.2594C81.5433-95.3523 88.4871-95.1621 93.6791-90.1925L133.857-50.6682C139.059-45.6319 139.059-38.5129 134.027-33.4301L83.1991 17.436C75.6418 25.045 65.8281 24.732 57.9517 17.22ZM33.1961-32.6617C29.68-29.1531 29.7467-24.6965 33.5458-21.0642C33.5458-21.0642 38.5744-16.8571 62.2727-25.2143C80.3712-29.7423 79.5661-23.2857 101.343-27.1429C117.355-30.3571 125.901-39.8119 125.901-39.8119C127.105-41.0634 127.198-42.7678 125.984-43.983L86.9686-82.3748C85.7948-83.5594 84.199-83.4665 82.9228-82.2355L33.1961-32.6617ZM172.56-42.38C166.649-53.5706 150.528-60.1726 138.963-56.8484C136.158-56.1328 135.263-54.6066 136.257-52.7625C136.834-51.6849 137.804-51.0182 138.881-50.2778C140.244-49.341 141.778-48.2862 142.905-46.132C143.931-44.2209 143.485-42.5044 142.978-40.5549C142.319-38.019 141.557-35.089 143.802-30.8239C147.441-23.6977 157.045-19.8142 165.391-22.2205C174.659-24.8457 177.596-32.8851 172.56-42.38Z"/>
  </g>
  <g id="Semibold-M" transform="matrix(1 0 0 1 1964.06 1126)">
   <path class="monochrome-0 SFSymbolsPreview000000" d="M55.9929 9.615L25.9843-19.2577C18.1345-26.6203 18.1152-36.1963 25.292-43.2851L73.4964-90.5151C78.3669-95.2599 84.9523-95.0826 89.8764-90.4529L127.981-53.6311C132.914-48.9391 132.914-42.3069 128.141-37.5717L79.9372 9.817C72.77 16.905 63.4627 16.613 55.9929 9.615ZM32.515-36.8558C29.1804-33.5871 29.2437-29.4352 32.8466-26.0513C32.8466-26.0513 37.6157-22.1319 60.0909-29.9176C77.2553-34.136 76.4917-28.1209 97.1446-31.7143C112.331-34.7088 120.435-43.5171 120.435-43.5171C121.577-44.683 121.665-46.2709 120.514-47.403L83.5121-83.1697C82.3989-84.2733 80.8855-84.1868 79.6752-83.0399L32.515-36.8558ZM164.686-45.9096C159.08-56.335 143.791-62.4856 132.823-59.3887C130.162-58.722 129.314-57.3002 130.257-55.5822C130.803-54.5783 131.723-53.9571 132.745-53.2674C134.038-52.3946 135.493-51.4119 136.561-49.405C137.535-47.6246 137.112-46.0255 136.631-44.2093C136.006-41.8468 135.283-39.1171 137.412-35.1436C140.863-28.5047 149.972-24.8867 157.887-27.1285C166.676-29.5742 169.462-37.0639 164.686-45.9096Z"/>
  </g>
  <g id="Medium-M" transform="matrix(1 0 0 1 1669.35 1126)">
   <path class="monochrome-0 SFSymbolsPreview000000" d="M55.0135 7.714L25.8214-20.6292C18.1852-27.8566 18.1665-37.2569 25.148-44.2157L72.0407-90.5791C76.7787-95.2367 83.1849-95.0627 87.975-90.518L125.042-54.3718C129.842-49.766 129.842-43.2554 125.199-38.607L78.3062 7.912C71.3341 14.87 62.2801 14.584 55.0135 7.714ZM32.1745-37.9043C28.9306-34.6956 28.9921-30.6199 32.4971-27.298C32.4971-27.298 37.1364-23.4506 59-31.0934C75.6973-35.2345 74.9545-29.3297 95.0455-32.8571C109.818-35.7967 117.702-44.4434 117.702-44.4434C118.813-45.5879 118.899-47.1466 117.779-48.258L81.7839-83.3684C80.701-84.4518 79.2287-84.3668 78.0514-83.241L32.1745-37.9043ZM160.749-46.792C155.296-57.0261 140.423-63.0639 129.753-60.0237C127.165-59.3693 126.34-57.9736 127.257-56.2871C127.788-55.3016 128.683-54.6919 129.677-54.0147C130.935-53.158 132.35-52.1934 133.389-50.2232C134.337-48.4755 133.925-46.9057 133.457-45.1229C132.849-42.8037 132.146-40.1241 134.218-36.2236C137.574-29.7064 146.435-26.1549 154.135-28.3555C162.685-30.7564 165.395-38.1086 160.749-46.792Z"/>
  </g>
  <g id="Regular-M" transform="matrix(1 0 0 1 1375.64 1126)">
   <path class="monochrome-0 SFSymbolsPreview000000" d="M53.5444 7.9113L25.5772-19.372C18.2614-26.3293 18.2434-35.3782 24.932-42.0768L69.8572-86.707C74.3964-91.1905 80.5338-91.023 85.1229-86.6481L120.635-51.8532C125.233-47.4196 125.233-41.1524 120.785-36.6778L75.8598 8.1018C69.1802 14.8 60.5061 14.524 53.5444 7.9113ZM31.6636-36.0014C28.5559-32.9126 28.6149-28.9892 31.9727-25.7916C31.9727-25.7916 36.4174-22.0879 57.3636-29.4451C73.3604-33.4313 72.6488-27.7473 91.8967-31.1429C106.05-33.9725 113.603-42.2959 113.603-42.2959C114.667-43.3977 114.749-44.8981 113.676-45.968L79.1916-79.7659C78.1541-80.8087 76.7436-80.727 75.6157-79.6432L31.6636-36.0014ZM154.843-44.5567C149.619-54.4083 135.37-60.2204 125.148-57.2939C122.668-56.664 121.878-55.3204 122.756-53.6969C123.266-52.7483 124.123-52.1613 125.075-51.5095C126.28-50.6848 127.636-49.7562 128.632-47.8598C129.539-46.1774 129.145-44.6663 128.697-42.9501C128.114-40.7176 127.441-38.1382 129.425-34.3834C132.641-28.1099 141.13-24.6911 148.507-26.8095C156.698-29.1206 159.295-36.198 154.843-44.5567Z"/>
  </g>
  <g id="Light-M" transform="matrix(1 0 0 1 1079.93 1126)">
   <path class="monochrome-0 SFSymbolsPreview000000" d="M53.0547 8.0101L25.4958-18.7434C18.2868-25.5656 18.269-34.4388 24.86-41.0073L69.1294-84.7709C73.6023-89.1674 79.6501-89.0031 84.1722-84.7132L119.166-50.594C123.697-46.2464 123.697-40.1009 119.314-35.7132L75.0443 8.197C68.4622 14.766 59.9148 14.495 53.0547 8.0101ZM31.4934-35.0499C28.431-32.0211 28.4891-28.1739 31.7979-25.0383C31.7979-25.0383 36.1777-21.4066 56.8182-28.6209C72.5814-32.5297 71.8802-26.956 90.8471-30.2857C104.793-33.0604 112.237-41.2222 112.237-41.2222C113.285-42.3026 113.366-43.7739 112.309-44.823L78.3275-77.9646C77.3051-78.9872 75.9152-78.907 74.8037-77.8443L31.4934-35.0499ZM152.875-43.4391C147.727-53.0994 133.686-58.7986 123.613-55.9289C121.17-55.3113 120.391-53.9938 121.256-52.4019C121.758-51.4716 122.603-50.8961 123.541-50.2569C124.728-49.4482 126.065-48.5377 127.046-46.678C127.94-45.0283 127.552-43.5465 127.11-41.8637C126.536-39.6746 125.873-37.1452 127.828-33.4634C130.997-27.3117 139.362-23.9593 146.631-26.0365C154.703-28.3027 157.261-35.2427 152.875-43.4391Z"/>
  </g>
  <g id="Thin-M" transform="matrix(1 0 0 1 785.217 1126)">
   <path class="monochrome-0 SFSymbolsPreview000000" d="M52.0753 8.1089L25.3329-18.1148C18.3375-24.8019 18.3203-33.4994 24.716-39.9379L67.6737-82.8349C72.014-87.1443 77.8827-86.9833 82.2708-82.7783L116.228-49.3347C120.624-45.0732 120.624-39.0494 116.371-34.7486L73.4134 8.2921C67.0263 14.731 58.7321 14.465 52.0753 8.1089ZM31.1528-34.0984C28.1812-31.1296 28.2376-27.3586 31.4484-24.2851C31.4484-24.2851 35.6983-20.7253 55.7273-27.7967C71.0234-31.6281 70.343-26.1648 88.7479-29.4286C102.281-32.1484 109.504-40.1485 109.504-40.1485C110.521-41.2075 110.6-42.6497 109.573-43.6779L76.5992-76.1633C75.6072-77.1657 74.2585-77.0871 73.1799-76.0454L31.1528-34.0984ZM148.937-42.3215C143.942-51.7905 130.317-57.3769 120.543-54.564C118.172-53.9586 117.416-52.6671 118.256-51.1068C118.743-50.1949 119.563-49.6308 120.473-49.0043C121.625-48.2116 122.922-47.3191 123.874-45.4963C124.742-43.8792 124.365-42.4268 123.937-40.7773C123.379-38.6315 122.736-36.1522 124.633-32.5433C127.708-26.5134 135.825-23.2274 142.879-25.2635C150.711-27.4849 153.194-34.2874 148.937-42.3215Z"/>
  </g>
  <g id="Ultralight-M" transform="matrix(1 0 0 1 492.506 1126)">
   <path class="monochrome-0 SFSymbolsPreview000000" d="M50.1165 8.4053L25.0072-16.2291C18.4391-22.5109 18.4229-30.6813 24.428-36.7295L64.7623-77.0267C68.8376-81.0749 74.3478-80.9237 78.468-76.9736L110.351-45.5568C114.479-41.5536 114.479-35.8949 110.486-31.8547L70.1515 8.5774C64.1545 14.6257 56.3668 14.3764 50.1165 8.4053ZM30.4717-31.2439C27.6816-28.4551 27.7345-24.9126 30.7492-22.0254C30.7492-22.0254 34.7397-18.6813 53.5455-25.3242C67.9075-28.9234 67.2686-23.7912 84.5496-26.8571C97.2562-29.4121 104.038-36.9274 104.038-36.9274C104.993-37.9222 105.067-39.277 104.103-40.2429L73.1428-70.7595C72.2113-71.7011 70.945-71.6273 69.9323-70.6487L30.4717-31.2439ZM141.063-38.9687C136.373-47.8638 123.58-53.1116 114.403-50.4692C112.177-49.9005 111.467-48.6873 112.256-47.2215C112.713-46.365 113.483-45.835 114.338-45.2465C115.419-44.5018 116.637-43.6634 117.531-41.951C118.345-40.432 117.991-39.0676 117.589-37.518C117.066-35.5023 116.462-33.1733 118.243-29.7831C121.131-24.1187 128.752-21.0318 135.375-22.9445C142.729-25.0312 145.06-31.4215 141.063-38.9687Z"/>
  </g>
  <g id="Black-S" transform="matrix(1 0 0 1 2864.69 696)">
   <path class="monochrome-0 SFSymbolsPreview000000" d="M50.851 6.0172L25.1294-19.0664C18.401-25.4627 18.3844-33.782 24.536-39.9406L65.8541-80.9725C70.0288-85.0945 75.6734-84.9405 79.894-80.9184L112.555-48.9288C116.784-44.8526 116.784-39.0907 112.693-34.9769L71.3747 6.1924C65.2314 12.351 57.2538 12.0972 50.851 6.0172ZM30.7271-34.355C27.8689-31.5153 27.9232-27.9082 31.0114-24.9683C31.0114-24.9683 35.0992-21.5633 54.3636-28.3273C69.076-31.9921 68.4215-26.7664 86.124-29.8882C99.1405-32.4897 106.087-40.1421 106.087-40.1421C107.066-41.155 107.142-42.5345 106.155-43.518L74.439-74.591C73.4848-75.5498 72.1876-75.4746 71.1502-74.4782L30.7271-34.355ZM144.016-42.2206C139.212-51.2779 126.107-56.6213 116.705-53.9308C114.425-53.3517 113.698-52.1164 114.506-50.6239C114.974-49.7517 115.763-49.2121 116.639-48.6128C117.747-47.8546 118.994-47.0009 119.909-45.2573C120.744-43.7106 120.381-42.3213 119.969-40.7435C119.434-38.691 118.814-36.3195 120.639-32.8675C123.597-27.0998 131.404-23.9566 138.189-25.9042C145.722-28.029 148.111-34.5358 144.016-42.2206Z"/>
  </g>
  <g id="Heavy-S" transform="matrix(1 0 0 1 2569.48 696)">
   <path class="monochrome-0 SFSymbolsPreview000000" d="M50.1165 4.6233L25.0072-20.0718C18.4391-26.3691 18.4229-34.5596 24.428-40.6228L64.7623-81.0194C68.8376-85.0776 74.3478-84.926 78.468-80.9661L110.351-49.4719C114.479-45.4588 114.479-39.7861 110.486-35.736L70.1515 4.7958C64.1545 10.859 56.3668 10.6091 50.1165 4.6233ZM30.4717-35.1237C27.6816-32.328 27.7345-28.7768 30.7492-25.8824C30.7492-25.8824 34.7397-22.5301 53.5455-29.1894C67.9075-32.7975 67.2686-27.6526 84.5496-30.7261C97.2562-33.2874 104.038-40.8212 104.038-40.8212C104.993-41.8184 105.067-43.1766 104.103-44.1449L73.1428-74.7367C72.2113-75.6806 70.945-75.6066 69.9323-74.6257L30.4717-35.1237ZM141.063-42.8675C136.373-51.7846 123.58-57.0453 114.403-54.3964C112.177-53.8262 111.467-52.6101 112.256-51.1407C112.713-50.282 113.483-49.7508 114.338-49.1608C115.419-48.4143 116.637-47.5738 117.531-45.8572C118.345-44.3344 117.991-42.9667 117.589-41.4133C117.066-39.3926 116.462-37.0579 118.243-33.6593C121.131-27.9809 128.752-24.8864 135.375-26.8038C142.729-28.8957 145.06-35.3017 141.063-42.8675Z"/>
  </g>
  <g id="Bold-S" transform="matrix(1 0 0 1 2273.59 696)">
   <path class="monochrome-0 SFSymbolsPreview000000" d="M49.7149 5.0814L24.9405-19.1841C18.4599-25.3718 18.4439-33.4199 24.369-39.3775L64.1655-79.0712C68.1864-83.0588 73.6232-82.9099 77.6884-79.0189L109.146-48.0726C113.22-44.1294 113.22-38.5554 109.279-34.5758L69.4828 5.2509C63.5657 11.2085 55.8819 10.963 49.7149 5.0814ZM30.3321-33.9741C27.5791-31.227 27.6314-27.7376 30.6059-24.8936C30.6059-24.8936 34.5431-21.5996 53.0982-28.143C67.2687-31.6883 66.6383-26.633 83.6889-29.653C96.2261-32.1697 102.917-39.5725 102.917-39.5725C103.86-40.5523 103.933-41.8868 102.982-42.8383L72.4342-72.8979C71.5152-73.8254 70.2657-73.7526 69.2665-72.7888L30.3321-33.9741ZM139.449-41.5832C134.822-50.3451 122.199-55.5143 113.144-52.9115C110.948-52.3512 110.248-51.1563 111.026-49.7124C111.477-48.8687 112.236-48.3467 113.08-47.7669C114.147-47.0334 115.349-46.2076 116.23-44.5209C117.034-43.0246 116.685-41.6806 116.288-40.1542C115.772-38.1687 115.176-35.8746 116.933-32.5352C119.782-26.9555 127.302-23.9149 133.836-25.799C141.093-27.8545 143.393-34.149 139.449-41.5832Z"/>
  </g>
  <g id="Semibold-S" transform="matrix(1 0 0 1 1980.01 696)">
   <path class="monochrome-0 SFSymbolsPreview000000" d="M48.1822 3.1297L24.6856-19.4773C18.5393-25.2421 18.5242-32.7401 24.1436-38.2906L61.8873-75.2714C65.7009-78.9865 70.8572-78.8477 74.7127-75.2226L104.548-46.3914C108.411-42.7177 108.411-37.5247 104.674-33.817L66.9304 3.2876C61.3185 8.8381 54.031 8.6094 48.1822 3.1297ZM29.7992-33.2565C27.1882-30.6971 27.2377-27.4462 30.0588-24.7966C30.0588-24.7966 33.793-21.7277 51.3909-27.8239C64.8305-31.1269 64.2326-26.4171 80.4037-29.2307C92.2942-31.5754 98.6402-38.4722 98.6402-38.4722C99.5345-39.3851 99.6033-40.6284 98.7015-41.5149L69.7296-69.52C68.8579-70.3841 67.6729-70.3163 66.7253-69.4183L29.7992-33.2565ZM133.288-40.3455C128.899-48.5086 116.928-53.3245 108.34-50.8996C106.256-50.3776 105.592-49.2643 106.33-47.9191C106.758-47.1331 107.479-46.6467 108.279-46.1066C109.291-45.4232 110.43-44.6538 111.266-43.0824C112.029-41.6884 111.698-40.4363 111.321-39.0142C110.832-37.1644 110.266-35.0271 111.933-31.9159C114.635-26.7176 121.767-23.8848 127.964-25.6401C134.846-27.5551 137.028-33.4194 133.288-40.3455Z"/>
  </g>
  <g id="Medium-S" transform="matrix(1 0 0 1 1684.85 696)">
   <path class="monochrome-0 SFSymbolsPreview000000" d="M47.4231 1.6639L24.5594-20.5347C18.5787-26.1954 18.5639-33.5579 24.032-39.0081L60.7592-75.3207C64.47-78.9686 69.4875-78.8324 73.2391-75.2728L102.271-46.9625C106.03-43.3551 106.03-38.256 102.393-34.6153L65.6664 1.8189C60.2057 7.2691 53.1145 7.0445 47.4231 1.6639ZM29.5352-34.0649C26.9946-31.5518 27.0428-28.3596 29.7879-25.7579C29.7879-25.7579 33.4215-22.7445 50.5455-28.7305C63.6231-31.9738 63.0413-27.3491 78.7769-30.1119C90.3471-32.4142 96.5222-39.1864 96.5222-39.1864C97.3924-40.0828 97.4593-41.3036 96.5819-42.1741L68.3902-69.6732C67.542-70.5217 66.3889-70.4552 65.4668-69.5734L29.5352-34.0649ZM130.237-41.0259C125.966-49.0415 114.317-53.7703 105.96-51.3892C103.933-50.8767 103.287-49.7835 104.005-48.4626C104.422-47.6908 105.123-47.2132 105.901-46.6829C106.886-46.0119 107.995-45.2563 108.808-43.7133C109.55-42.3445 109.228-41.115 108.862-39.7186C108.385-37.9022 107.835-35.8035 109.457-32.7485C112.086-27.6442 119.026-24.8625 125.057-26.5861C131.753-28.4665 133.876-34.2249 130.237-41.0259Z"/>
  </g>
  <g id="Regular-S" transform="matrix(1 0 0 1 1390.5 696)">
   <path class="monochrome-0 SFSymbolsPreview000000" d="M46.265-1.3362L24.3669-22.6988C18.6387-28.1463 18.6246-35.2315 23.8617-40.4765L59.0378-75.4216C62.592-78.9322 67.3975-78.801 70.9907-75.3755L98.7965-48.1314C102.397-44.6598 102.397-39.7527 98.9137-36.2491L63.7378-1.187C58.5077 4.058 51.716 3.8418 46.265-1.3362ZM29.1325-35.7195C26.6992-33.301 26.7454-30.229 29.3745-27.7253C29.3745-27.7253 32.8547-24.8253 49.2555-30.5859C61.7808-33.7071 61.2236-29.2566 76.2946-31.9153C87.3762-34.1309 93.2905-40.6481 93.2905-40.6481C94.1239-41.5107 94.1881-42.6856 93.3477-43.5232L66.3466-69.9868C65.5342-70.8033 64.4298-70.7393 63.5467-69.8907L29.1325-35.7195ZM125.581-42.4183C121.491-50.132 110.334-54.6828 102.33-52.3913C100.389-51.8981 99.7697-50.8461 100.457-49.575C100.856-48.8322 101.528-48.3726 102.273-47.8622C103.216-47.2165 104.278-46.4894 105.058-45.0045C105.768-43.6872 105.46-42.504 105.109-41.1602C104.653-39.4123 104.125-37.3926 105.679-34.4526C108.197-29.5405 114.844-26.8636 120.62-28.5223C127.034-30.3319 129.067-35.8734 125.581-42.4183Z"/>
  </g>
  <g id="Light-S" transform="matrix(1 0 0 1 1094.57 696)">
   <path class="monochrome-0 SFSymbolsPreview000000" d="M45.883-0.8205L24.3034-21.7695C18.6585-27.1115 18.6446-34.0596 23.8056-39.203L58.4701-73.4715C61.9726-76.9141 66.7082-76.7855 70.2492-73.4263L97.6505-46.7097C101.198-43.3054 101.198-38.4932 97.7661-35.0575L63.1018-0.6742C57.9477 4.4692 51.2547 4.2572 45.883-0.8205ZM28.9997-34.5381C26.6018-32.1664 26.6473-29.1539 29.2382-26.6987C29.2382-26.6987 32.6677-23.8549 48.83-29.504C61.1732-32.5647 60.6241-28.2003 75.4759-30.8076C86.3964-32.9803 92.2247-39.3713 92.2247-39.3713C93.0459-40.2172 93.1092-41.3693 92.281-42.1908L65.6726-68.1419C64.872-68.9426 63.7837-68.8799 62.9134-68.0477L28.9997-34.5381ZM124.046-41.1072C120.015-48.6716 109.02-53.1342 101.133-50.8872C99.2195-50.4035 98.6096-49.3718 99.2874-48.1253C99.6805-47.3969 100.342-46.9462 101.077-46.4458C102.006-45.8125 103.053-45.0995 103.821-43.6434C104.521-42.3516 104.217-41.1913 103.871-39.8735C103.422-38.1594 102.902-36.1788 104.433-33.2958C106.915-28.4788 113.465-25.8537 119.157-27.4803C125.477-29.2548 127.481-34.6891 124.046-41.1072Z"/>
  </g>
  <g id="Thin-S" transform="matrix(1 0 0 1 799.432 696)">
   <path class="monochrome-0 SFSymbolsPreview000000" d="M45.1142-2.3149L24.1756-22.8475C18.6983-28.0833 18.6848-34.8932 23.6925-39.9344L57.3274-73.5218C60.7258-76.8959 65.3208-76.7699 68.7566-73.4775L95.344-47.2919C98.7865-43.9552 98.7865-39.2388 95.4562-35.8713L61.8215-2.1715C56.8205 2.8697 50.3263 2.6619 45.1142-2.3149ZM28.7324-35.3622C26.4057-33.0377 26.4498-30.0851 28.9638-27.6786C28.9638-27.6786 32.2914-24.8914 47.9736-30.4282C59.9502-33.4281 59.4174-29.1504 73.8281-31.7059C84.4241-33.8354 90.0793-40.0993 90.0793-40.0993C90.8762-40.9285 90.9375-42.0577 90.1339-42.8628L64.3159-68.2981C63.5392-69.0829 62.4832-69.0214 61.6387-68.2058L28.7324-35.3622ZM120.955-41.8008C117.044-49.2148 106.376-53.5887 98.7229-51.3863C96.8664-50.9123 96.2746-49.9011 96.9322-48.6794C97.3137-47.9655 97.9556-47.5237 98.6684-47.0332C99.5704-46.4126 100.586-45.7137 101.331-44.2865C102.011-43.0204 101.715-41.8832 101.38-40.5916C100.944-38.9116 100.44-36.9703 101.925-34.1446C104.333-29.4234 110.688-26.8505 116.211-28.4447C122.344-30.184 124.288-35.5102 120.955-41.8008Z"/>
  </g>
  <g id="Ultralight-S" transform="matrix(1 0 0 1 505.851 696)">
   <path class="monochrome-0 SFSymbolsPreview000000" d="M43.5814-2.7779L23.9207-22.0669C18.7778-26.9856 18.7651-33.383 23.4672-38.1189L55.0493-69.6719C58.2402-72.8417 62.5548-72.7233 65.7809-69.6303L90.7457-45.0307C93.9781-41.8961 93.978-37.4653 90.851-34.3019L59.269-2.6432C54.5733 2.0927 48.4755 1.8975 43.5814-2.7779ZM28.1995-33.8236C26.0147-31.6399 26.0562-28.8661 28.4167-26.6054C28.4167-26.6054 31.5413-23.987 46.2664-29.1884C57.5119-32.0066 57.0117-27.9881 70.5429-30.3887C80.4922-32.3893 85.8023-38.2738 85.8023-38.2738C86.5505-39.0527 86.6081-40.1135 85.8536-40.8699L61.6112-64.7646C60.8819-65.5019 59.8903-65.4441 59.0974-64.6779L28.1995-33.8236ZM114.794-39.8722C111.121-46.8371 101.104-50.9462 93.9183-48.8772C92.1751-48.4318 91.6194-47.4819 92.2369-46.3342C92.5951-45.6635 93.1978-45.2485 93.8672-44.7877C94.7141-44.2046 95.6676-43.5481 96.3673-42.2074C97.0054-41.0179 96.7281-39.9496 96.4132-38.7363C96.0036-37.158 95.5303-35.3343 96.9251-32.6798C99.186-28.2445 105.154-25.8274 110.339-27.3251C116.098-28.959 117.923-33.9626 114.794-39.8722Z"/>
  </g>
 </g>
</svg>
