<?xml version="1.0" encoding="UTF-8"?>
<!--Generator: Apple Native CoreSVG 175.5-->
<!DOCTYPE svg
PUBLIC "-//W3C//DTD SVG 1.1//EN"
       "http://www.w3.org/Graphics/SVG/1.1/DTD/svg11.dtd">
<svg version="1.1" xmlns="http://www.w3.org/2000/svg" xmlns:xlink="http://www.w3.org/1999/xlink" width="3300" height="2200">
 <!--glyph: "", point size: 100.0, font version: "18.0d12e2", template writer version: "101"-->
 <g id="Notes">
  <rect height="2200" id="artboard" style="fill:white;opacity:1" width="3300" x="0" y="0"/>
  <line style="fill:none;stroke:black;opacity:1;stroke-width:0.5;" x1="263" x2="3036" y1="292" y2="292"/>
  <text style="stroke:none;fill:black;font-family:sans-serif;font-size:13;font-weight:bold;" transform="matrix(1 0 0 1 263 322)">Weight/Scale Variations</text>
  <text style="stroke:none;fill:black;font-family:sans-serif;font-size:13;text-anchor:middle;" transform="matrix(1 0 0 1 559.711 322)">Ultralight</text>
  <text style="stroke:none;fill:black;font-family:sans-serif;font-size:13;text-anchor:middle;" transform="matrix(1 0 0 1 856.422 322)">Thin</text>
  <text style="stroke:none;fill:black;font-family:sans-serif;font-size:13;text-anchor:middle;" transform="matrix(1 0 0 1 1153.13 322)">Light</text>
  <text style="stroke:none;fill:black;font-family:sans-serif;font-size:13;text-anchor:middle;" transform="matrix(1 0 0 1 1449.84 322)">Regular</text>
  <text style="stroke:none;fill:black;font-family:sans-serif;font-size:13;text-anchor:middle;" transform="matrix(1 0 0 1 1746.56 322)">Medium</text>
  <text style="stroke:none;fill:black;font-family:sans-serif;font-size:13;text-anchor:middle;" transform="matrix(1 0 0 1 2043.27 322)">Semibold</text>
  <text style="stroke:none;fill:black;font-family:sans-serif;font-size:13;text-anchor:middle;" transform="matrix(1 0 0 1 2339.98 322)">Bold</text>
  <text style="stroke:none;fill:black;font-family:sans-serif;font-size:13;text-anchor:middle;" transform="matrix(1 0 0 1 2636.69 322)">Heavy</text>
  <text style="stroke:none;fill:black;font-family:sans-serif;font-size:13;text-anchor:middle;" transform="matrix(1 0 0 1 2933.4 322)">Black</text>
  <line style="fill:none;stroke:black;opacity:1;stroke-width:0.5;" x1="263" x2="3036" y1="1903" y2="1903"/>
  <g transform="matrix(1 0 0 1 263 1933)">
   <path d="M9.24805 0.830078C13.5547 0.830078 17.1387-2.74414 17.1387-7.05078C17.1387-11.3574 13.5449-14.9316 9.23828-14.9316C4.94141-14.9316 1.36719-11.3574 1.36719-7.05078C1.36719-2.74414 4.95117 0.830078 9.24805 0.830078ZM9.24805-0.654297C5.70312-0.654297 2.87109-3.49609 2.87109-7.05078C2.87109-10.6055 5.69336-13.4473 9.23828-13.4473C12.793-13.4473 15.6445-10.6055 15.6445-7.05078C15.6445-3.49609 12.8027-0.654297 9.24805-0.654297ZM5.6543-7.05078C5.6543-6.62109 5.95703-6.32812 6.40625-6.32812L8.50586-6.32812L8.50586-4.20898C8.50586-3.76953 8.79883-3.4668 9.22852-3.4668C9.67773-3.4668 9.9707-3.76953 9.9707-4.20898L9.9707-6.32812L12.0898-6.32812C12.5293-6.32812 12.832-6.62109 12.832-7.05078C12.832-7.49023 12.5293-7.79297 12.0898-7.79297L9.9707-7.79297L9.9707-9.90234C9.9707-10.3516 9.67773-10.6543 9.22852-10.6543C8.79883-10.6543 8.50586-10.3516 8.50586-9.90234L8.50586-7.79297L6.40625-7.79297C5.95703-7.79297 5.6543-7.49023 5.6543-7.05078Z"/>
  </g>
  <g transform="matrix(1 0 0 1 281.867 1933)">
   <path d="M11.709 2.91016C17.1582 2.91016 21.6699-1.61133 21.6699-7.05078C21.6699-12.5 17.1484-17.0117 11.6992-17.0117C6.25977-17.0117 1.74805-12.5 1.74805-7.05078C1.74805-1.61133 6.26953 2.91016 11.709 2.91016ZM11.709 1.25C7.09961 1.25 3.41797-2.44141 3.41797-7.05078C3.41797-11.6602 7.08984-15.3516 11.6992-15.3516C16.3086-15.3516 20.0098-11.6602 20.0098-7.05078C20.0098-2.44141 16.3184 1.25 11.709 1.25ZM7.17773-7.05078C7.17773-6.57227 7.50977-6.25 8.00781-6.25L10.8789-6.25L10.8789-3.36914C10.8789-2.88086 11.2109-2.53906 11.6895-2.53906C12.1777-2.53906 12.5195-2.87109 12.5195-3.36914L12.5195-6.25L15.4004-6.25C15.8887-6.25 16.2305-6.57227 16.2305-7.05078C16.2305-7.53906 15.8887-7.88086 15.4004-7.88086L12.5195-7.88086L12.5195-10.752C12.5195-11.25 12.1777-11.5918 11.6895-11.5918C11.2109-11.5918 10.8789-11.25 10.8789-10.752L10.8789-7.88086L8.00781-7.88086C7.50977-7.88086 7.17773-7.53906 7.17773-7.05078Z"/>
  </g>
  <g transform="matrix(1 0 0 1 305.646 1933)">
   <path d="M14.9707 5.66406C21.9336 5.66406 27.6953-0.0976562 27.6953-7.05078C27.6953-14.0137 21.9238-19.7754 14.9609-19.7754C8.00781-19.7754 2.25586-14.0137 2.25586-7.05078C2.25586-0.0976562 8.01758 5.66406 14.9707 5.66406ZM14.9707 3.84766C8.93555 3.84766 4.08203-1.01562 4.08203-7.05078C4.08203-13.0957 8.92578-17.9492 14.9609-17.9492C21.0059-17.9492 25.8691-13.0957 25.8691-7.05078C25.8691-1.01562 21.0156 3.84766 14.9707 3.84766ZM9.19922-7.05078C9.19922-6.5332 9.57031-6.17188 10.1172-6.17188L14.0625-6.17188L14.0625-2.2168C14.0625-1.67969 14.4336-1.29883 14.9512-1.29883C15.4883-1.29883 15.8594-1.66992 15.8594-2.2168L15.8594-6.17188L19.8145-6.17188C20.3516-6.17188 20.7324-6.5332 20.7324-7.05078C20.7324-7.59766 20.3613-7.96875 19.8145-7.96875L15.8594-7.96875L15.8594-11.9141C15.8594-12.4609 15.4883-12.8418 14.9512-12.8418C14.4336-12.8418 14.0625-12.4609 14.0625-11.9141L14.0625-7.96875L10.1172-7.96875C9.57031-7.96875 9.19922-7.59766 9.19922-7.05078Z"/>
  </g>
  <text style="stroke:none;fill:black;font-family:sans-serif;font-size:13;font-weight:bold;" transform="matrix(1 0 0 1 263 1953)">Design Variations</text>
  <text style="stroke:none;fill:black;font-family:sans-serif;font-size:13;" transform="matrix(1 0 0 1 263 1971)">Symbols are supported in up to nine weights and three scales.</text>
  <text style="stroke:none;fill:black;font-family:sans-serif;font-size:13;" transform="matrix(1 0 0 1 263 1989)">For optimal layout with text and other symbols, vertically align</text>
  <text style="stroke:none;fill:black;font-family:sans-serif;font-size:13;" transform="matrix(1 0 0 1 263 2007)">symbols with the adjacent text.</text>
  <line style="fill:none;stroke:#00AEEF;stroke-width:0.5;opacity:1.0;" x1="776" x2="776" y1="1919" y2="1933"/>
  <g transform="matrix(1 0 0 1 776 1933)">
   <path d="M3.31055 0.15625C3.82812 0.15625 4.08203-0.0390625 4.26758-0.585938L5.52734-4.0332L11.2891-4.0332L12.5488-0.585938C12.7344-0.0390625 12.9883 0.15625 13.4961 0.15625C14.0137 0.15625 14.3457-0.15625 14.3457-0.644531C14.3457-0.810547 14.3164-0.966797 14.2383-1.17188L9.6582-13.3691C9.43359-13.9648 9.0332-14.2676 8.4082-14.2676C7.80273-14.2676 7.39258-13.9746 7.17773-13.3789L2.59766-1.16211C2.51953-0.957031 2.49023-0.800781 2.49023-0.634766C2.49023-0.146484 2.80273 0.15625 3.31055 0.15625ZM6.00586-5.51758L8.37891-12.0898L8.42773-12.0898L10.8008-5.51758Z"/>
  </g>
  <line style="fill:none;stroke:#00AEEF;stroke-width:0.5;opacity:1.0;" x1="793.197" x2="793.197" y1="1919" y2="1933"/>
  <text style="stroke:none;fill:black;font-family:sans-serif;font-size:13;font-weight:bold;" transform="matrix(1 0 0 1 776 1953)">Margins</text>
  <text style="stroke:none;fill:black;font-family:sans-serif;font-size:13;" transform="matrix(1 0 0 1 776 1971)">Leading and trailing margins on the left and right side of each symbol</text>
  <text style="stroke:none;fill:black;font-family:sans-serif;font-size:13;" transform="matrix(1 0 0 1 776 1989)">can be adjusted by modifying the x-location of the margin guidelines.</text>
  <text style="stroke:none;fill:black;font-family:sans-serif;font-size:13;" transform="matrix(1 0 0 1 776 2007)">Modifications are automatically applied proportionally to all</text>
  <text style="stroke:none;fill:black;font-family:sans-serif;font-size:13;" transform="matrix(1 0 0 1 776 2025)">scales and weights.</text>
  <g transform="matrix(1 0 0 1 1289 1933)">
   <path d="M2.8418 1.86523L4.54102 3.57422C5.40039 4.44336 6.38672 4.38477 7.31445 3.35938L18.0078-8.42773L17.041-9.4043L6.42578 2.27539C6.07422 2.67578 5.74219 2.77344 5.27344 2.30469L4.10156 1.14258C3.63281 0.683594 3.74023 0.341797 4.14062-0.0195312L15.6152-10.8203L14.6387-11.7871L3.04688-0.898438C2.06055 0.0195312 1.98242 0.996094 2.8418 1.86523ZM9.25781-16.3281C8.83789-15.918 8.80859-15.3418 9.04297-14.9512C9.27734-14.5898 9.73633-14.3555 10.3809-14.5215C11.8457-14.8633 13.3691-14.9219 14.7949-13.9844L14.209-12.5293C13.8672-11.6992 14.043-11.1133 14.5801-10.5664L16.875-8.25195C17.3633-7.76367 17.7734-7.74414 18.3398-7.8418L19.4043-8.03711L20.0684-7.36328L20.0293-6.80664C19.9902-6.30859 20.1172-5.92773 20.6055-5.44922L21.3672-4.70703C21.8457-4.22852 22.4609-4.19922 22.9297-4.66797L25.8398-7.58789C26.3086-8.05664 26.2891-8.65234 25.8105-9.13086L25.0391-9.89258C24.5605-10.3711 24.1895-10.5273 23.7109-10.4883L23.1348-10.4395L22.4902-11.0742L22.7344-12.1973C22.8613-12.7637 22.7051-13.2031 22.1191-13.7891L19.9219-15.9766C16.582-19.2969 12.1484-19.2188 9.25781-16.3281ZM10.752-15.957C13.1836-17.7344 16.4746-17.4316 18.7012-15.2051L21.1328-12.793C21.3672-12.5586 21.4062-12.373 21.3379-12.0312L21.0156-10.5469L22.5195-9.0625L23.5059-9.12109C23.7598-9.13086 23.8379-9.11133 24.0332-8.91602L24.6094-8.33984L22.168-5.89844L21.5918-6.47461C21.3965-6.66992 21.3672-6.74805 21.377-7.01172L21.4453-7.98828L19.9512-9.47266L18.4277-9.21875C18.1055-9.15039 17.959-9.17969 17.7148-9.41406L15.7129-11.416C15.459-11.6504 15.4297-11.8164 15.5859-12.1875L16.4648-14.2773C14.9023-15.7324 12.8711-16.3574 10.8398-15.7617C10.6836-15.7227 10.625-15.8496 10.752-15.957Z"/>
  </g>
  <text style="stroke:none;fill:black;font-family:sans-serif;font-size:13;font-weight:bold;" transform="matrix(1 0 0 1 1289 1953)">Exporting</text>
  <text style="stroke:none;fill:black;font-family:sans-serif;font-size:13;" transform="matrix(1 0 0 1 1289 1971)">Symbols should be outlined when exporting to ensure the</text>
  <text style="stroke:none;fill:black;font-family:sans-serif;font-size:13;" transform="matrix(1 0 0 1 1289 1989)">design is preserved when submitting to Xcode.</text>
  <text id="template-version" style="stroke:none;fill:black;font-family:sans-serif;font-size:13;text-anchor:end;" transform="matrix(1 0 0 1 3036 1933)">Template v.4.0</text>
  <text style="stroke:none;fill:black;font-family:sans-serif;font-size:13;text-anchor:end;" transform="matrix(1 0 0 1 3036 1951)">Requires Xcode 14 or greater</text>
  <text id="descriptive-name" style="stroke:none;fill:black;font-family:sans-serif;font-size:13;text-anchor:end;" transform="matrix(1 0 0 1 3036 1969)">Generated from hoe.fill</text>
  <text style="stroke:none;fill:black;font-family:sans-serif;font-size:13;text-anchor:end;" transform="matrix(1 0 0 1 3036 1987)">Typeset at 100 points</text>
  <text style="stroke:none;fill:black;font-family:sans-serif;font-size:13;" transform="matrix(1 0 0 1 263 726)">Small</text>
  <text style="stroke:none;fill:black;font-family:sans-serif;font-size:13;" transform="matrix(1 0 0 1 263 1156)">Medium</text>
  <text style="stroke:none;fill:black;font-family:sans-serif;font-size:13;" transform="matrix(1 0 0 1 263 1586)">Large</text>
 </g>
 <g id="Guides">
  <g id="H-reference" style="fill:#27AAE1;stroke:none;" transform="matrix(1 0 0 1 339 696)">
   <path d="M0.993654 0L3.63775 0L29.3281-67.1323L30.0303-67.1323L30.0303-70.459L28.1226-70.459ZM11.6885-24.4799L46.9815-24.4799L46.2315-26.7285L12.4385-26.7285ZM55.1196 0L57.7637 0L30.6382-70.459L29.4326-70.459L29.4326-67.1323Z"/>
  </g>
  <line id="Baseline-S" style="fill:none;stroke:#27AAE1;opacity:1;stroke-width:0.5;" x1="263" x2="3036" y1="696" y2="696"/>
  <line id="Capline-S" style="fill:none;stroke:#27AAE1;opacity:1;stroke-width:0.5;" x1="263" x2="3036" y1="625.541" y2="625.541"/>
  <g id="H-reference" style="fill:#27AAE1;stroke:none;" transform="matrix(1 0 0 1 339 1126)">
   <path d="M0.993654 0L3.63775 0L29.3281-67.1323L30.0303-67.1323L30.0303-70.459L28.1226-70.459ZM11.6885-24.4799L46.9815-24.4799L46.2315-26.7285L12.4385-26.7285ZM55.1196 0L57.7637 0L30.6382-70.459L29.4326-70.459L29.4326-67.1323Z"/>
  </g>
  <line id="Baseline-M" style="fill:none;stroke:#27AAE1;opacity:1;stroke-width:0.5;" x1="263" x2="3036" y1="1126" y2="1126"/>
  <line id="Capline-M" style="fill:none;stroke:#27AAE1;opacity:1;stroke-width:0.5;" x1="263" x2="3036" y1="1055.54" y2="1055.54"/>
  <g id="H-reference" style="fill:#27AAE1;stroke:none;" transform="matrix(1 0 0 1 339 1556)">
   <path d="M0.993654 0L3.63775 0L29.3281-67.1323L30.0303-67.1323L30.0303-70.459L28.1226-70.459ZM11.6885-24.4799L46.9815-24.4799L46.2315-26.7285L12.4385-26.7285ZM55.1196 0L57.7637 0L30.6382-70.459L29.4326-70.459L29.4326-67.1323Z"/>
  </g>
  <line id="Baseline-L" style="fill:none;stroke:#27AAE1;opacity:1;stroke-width:0.5;" x1="263" x2="3036" y1="1556" y2="1556"/>
  <line id="Capline-L" style="fill:none;stroke:#27AAE1;opacity:1;stroke-width:0.5;" x1="263" x2="3036" y1="1485.54" y2="1485.54"/>
  <line id="left-margin-Ultralight-S" style="fill:none;stroke:#00AEEF;stroke-width:0.5;opacity:1.0;" x1="505.583" x2="505.583" y1="600.785" y2="720.121"/>
  <line id="right-margin-Ultralight-S" style="fill:none;stroke:#00AEEF;stroke-width:0.5;opacity:1.0;" x1="613.839" x2="613.839" y1="600.785" y2="720.121"/>
  <line id="left-margin-Regular-S" style="fill:none;stroke:#00AEEF;stroke-width:0.5;opacity:1.0;" x1="1393.42" x2="1393.42" y1="600.785" y2="720.121"/>
  <line id="right-margin-Regular-S" style="fill:none;stroke:#00AEEF;stroke-width:0.5;opacity:1.0;" x1="1506.27" x2="1506.27" y1="600.785" y2="720.121"/>
  <line id="left-margin-Black-S" style="fill:none;stroke:#00AEEF;stroke-width:0.5;opacity:1.0;" x1="2870.78" x2="2870.78" y1="600.785" y2="720.121"/>
  <line id="right-margin-Black-S" style="fill:none;stroke:#00AEEF;stroke-width:0.5;opacity:1.0;" x1="2996.02" x2="2996.02" y1="600.785" y2="720.121"/>
  <line id="left-margin-Regular-M" style="fill:none;stroke:#00AEEF;stroke-width:0.5;opacity:1.0;" x1="1378.38" x2="1378.38" y1="1030.79" y2="1150.12"/>
  <line id="right-margin-Regular-M" style="fill:none;stroke:#00AEEF;stroke-width:0.5;opacity:1.0;" x1="1521.31" x2="1521.31" y1="1030.79" y2="1150.12"/>
 </g>
 <g id="Symbols">
  <g id="Black-L" transform="matrix(1 0 0 1 2833.12 1556)">
   <path d="M45.0305 40.0592C51.1083 46.2251 60.2445 44.3741 66.6871 37.2242L127.245-34.1296L103.474-57.706L31.4779 4.10005C24.31 10.4499 24.4611 20.006 30.5389 26.1657L45.0305 40.0592ZM154.87-43.0561C164.57-46.6857 170.107-52.104 173.591-61.863C174.763-65.1455 175.349-70.6117 175.349-70.6117C176.357-75.7463 175.283-79.7561 171.295-83.6517L175.349-87.5035L157.607-104.445L153.603-101.245C132.886-121.77 97.5699-120.749 78.1401-101.33C74.4588-97.6516 75.7346-90.8782 77.3658-88.7712C78.8985-86.8121 82.6828-84.1616 86.6569-85.2798C98.6414-88.9275 108.471-89.7889 115.99-85.7974L112.243-73.423C110.043-68.5515 114.395-63.1202 117.908-59.5242L135.739-43.1959C138.267-40.6753 140.435-40.2408 144.456-41.0486C144.456-41.0486 150.993-41.6052 154.87-43.0561Z"/>
  </g>
  <g id="Heavy-L" transform="matrix(1 0 0 1 2538.38 1556)">
   <path d="M44.0253 38.4378C49.9249 44.4259 58.4 42.8591 64.6542 35.9152L125.142-34.7805L102.591-57.052L31.3478 4.39714C24.3913 10.5641 24.4423 19.2293 30.342 25.2114L44.0253 38.4378ZM151.408-43.1555C160.824-46.6807 166.197-51.9428 169.579-61.4206C170.717-64.6085 171.286-69.9174 171.286-69.9174C172.262-74.9041 171.222-78.681 167.351-82.4643L171.286-86.2054L154.066-102.659L150.179-99.5514C130.069-119.484 95.6508-118.808 76.7936-99.9495C73.3963-96.5525 74.4511-90.4452 76.0353-88.3991C77.4611-86.5909 80.8114-84.3638 84.4169-85.308C96.1899-88.8 106.06-89.8805 114.529-85.3871L110.494-72.6558C108.357-67.9247 112.103-62.8972 115.511-59.405L132.841-43.2915C135.292-40.8435 137.397-40.4215 141.3-41.2058C141.3-41.2058 147.645-41.7467 151.408-43.1555Z"/>
  </g>
  <g id="Bold-L" transform="matrix(1 0 0 1 2244.01 1556)">
   <path d="M42.8287 36.5822C48.5116 42.3535 56.1736 41.1199 62.1986 34.4274L122.738-35.5611L101.639-56.3124L31.1886 4.8334C24.4887 10.7771 24.4287 18.3989 30.1119 24.1644L42.8287 36.5822ZM147.29-43.2246C156.359-46.6223 161.533-51.6936 164.792-60.8283C165.888-63.9007 166.437-69.0177 166.437-69.0177C167.375-73.8237 166.374-77.33 162.645-80.9763L166.437-84.5823L149.85-100.439L146.105-97.445C126.734-116.656 93.4273-116.428 75.2653-98.252C72.1932-95.1787 72.987-89.8802 74.5138-87.9083C75.8169-86.2733 78.6754-84.5228 81.8607-85.2709C93.4486-88.5479 103.38-89.7818 112.803-84.6796L108.441-71.6748C106.382-67.115 109.403-62.5649 112.685-59.1993L129.406-43.3559C131.765-40.9964 133.792-40.5896 137.552-41.3453C137.552-41.3453 143.665-41.867 147.29-43.2246Z"/>
  </g>
  <g id="Semibold-L" transform="matrix(1 0 0 1 1948.91 1556)">
   <path d="M42.0038 35.3029C47.5373 40.9248 54.6388 39.9209 60.5058 33.4017L121.081-36.0992L100.983-55.8024L31.0788 5.13415C24.5559 10.924 24.4193 17.8264 29.9532 23.4425L42.0038 35.3029ZM144.45-43.2722C153.282-46.5821 158.318-51.5219 161.491-60.42C162.56-63.4128 163.095-68.3974 163.095-68.3974C164.005-73.0789 163.032-76.3987 159.401-79.9505L163.095-83.4633L146.943-98.9093L143.297-95.9928C124.434-114.706 91.8945-114.787 74.2117-97.0818C71.3639-94.2316 71.9776-89.4907 73.4649-87.5701C74.6833-86.0544 77.2028-84.6324 80.0985-85.2454C91.5587-88.374 101.532-89.7138 111.613-84.1918L107.025-70.9985C105.021-66.5569 107.541-62.3358 110.737-59.0575L127.038-43.4003C129.333-41.1019 131.307-40.7056 134.969-41.4415C134.969-41.4415 140.921-41.9499 144.45-43.2722Z"/>
  </g>
  <g id="Medium-L" transform="matrix(1 0 0 1 1653.43 1556)">
   <path d="M41.3783 34.333C46.7986 39.8415 53.475 39.0118 59.2222 32.624L119.824-36.5072L100.486-55.4158L30.9955 5.3622C24.6068 11.0354 24.4122 17.3923 29.8329 22.8952L41.3783 34.333ZM142.297-43.3083C150.948-46.5516 155.88-51.3917 158.989-60.1104C160.035-63.0429 160.56-67.9271 160.56-67.9271C161.451-72.5142 160.498-75.6925 156.942-79.1727L160.56-82.6148L144.739-97.7492L141.168-94.8917C122.691-113.228 90.7322-113.543 73.4128-96.1945C70.735-93.5135 71.2122-89.1954 72.6696-87.3136C73.8239-85.8884 76.0863-84.7155 78.7623-85.2261C90.1257-88.2422 100.131-89.6622 110.711-83.822L105.952-70.4857C103.989-66.1336 106.13-62.1621 109.26-58.95L125.242-43.434C127.489-41.1818 129.423-40.7935 133.01-41.5144C133.01-41.5144 138.84-42.0128 142.297-43.3083Z"/>
  </g>
  <g id="Regular-L" transform="matrix(1 0 0 1 1358.31 1556)">
   <path d="M40.5625 33.0678C45.835 38.4285 51.9569 37.8259 57.5479 31.6096L118.185-37.0394L99.8369-54.9115L30.887 5.65965C24.6732 11.1806 24.4029 16.8261 29.676 22.1813L40.5625 33.0678ZM139.489-43.3554C147.904-46.5117 152.7-51.2218 155.725-59.7066C156.743-62.5604 157.254-67.3137 157.254-67.3137C158.118-71.7776 157.193-74.7715 153.733-78.1581L157.254-81.5081L141.864-96.236L138.39-93.4556C120.416-111.299 89.2162-111.92 72.3708-95.0372C69.9148-92.5768 70.2139-88.8101 71.6322-86.979C72.7028-85.6719 74.6299-84.8239 77.0194-85.2008C88.2566-88.0703 98.3037-89.595 109.534-83.3396L104.552-69.8169C102.642-65.5816 104.289-61.9355 107.333-58.8098L122.9-43.4779C125.084-41.2861 126.965-40.9081 130.454-41.6095C130.454-41.6095 136.126-42.0948 139.489-43.3554Z"/>
  </g>
  <g id="Light-L" transform="matrix(1 0 0 1 1062.57 1556)">
   <path d="M40.0489 32.7702C45.1979 38.0023 50.7936 37.509 56.2534 31.4423L117.818-37.4126L100.095-54.8543L30.7886 6.40062C24.7194 11.7888 24.4559 17.101 29.6059 22.3272L40.0489 32.7702ZM137.731-43.0544C145.951-46.1352 150.637-50.7313 153.589-59.0122C154.582-61.7975 155.082-66.4361 155.082-66.4361C155.929-70.7924 155.025-73.7144 151.644-77.0196L155.082-80.2889L140.052-94.6625L136.658-91.9488C119.101-109.363 88.6694-110.425 72.2127-93.9491C69.8122-91.5479 70.0109-88.2348 71.3964-86.4482C72.4443-85.1721 74.326-84.3447 76.6596-84.7124C88.2638-87.289 98.4247-88.1609 108.88-81.5668L103.871-68.9414C102.007-64.8078 103.324-61.345 106.297-58.2946L121.526-43.174C123.66-41.0348 125.497-40.6665 128.906-41.3506C128.906-41.3506 134.445-41.8241 137.731-43.0544Z"/>
  </g>
  <g id="Thin-L" transform="matrix(1 0 0 1 767.131 1556)">
   <path d="M39.3696 32.3767C44.3552 37.4387 49.2549 37.0899 54.5413 31.2211L117.333-37.9062L100.437-54.7787L30.6585 7.38061C24.7806 12.5931 24.5259 17.4645 29.513 22.52L39.3696 32.3767ZM135.405-42.6564C143.369-45.6371 147.908-50.0826 150.764-58.094C151.725-60.7886 152.209-65.2755 152.209-65.2755C153.033-69.4895 152.157-72.3164 148.88-75.5137L152.209-78.6763L137.654-92.5813L134.367-89.956C117.361-106.802 87.9462-108.448 72.0037-92.5099C69.6766-90.1872 69.7424-87.4738 71.0846-85.7461C72.1025-84.5112 73.9242-83.711 76.1838-84.0665C88.2732-86.2556 98.5848-86.2643 108.016-79.2221L102.97-67.7835C101.167-63.7845 102.047-60.564 104.928-57.6131L119.708-42.7722C121.776-40.7024 123.556-40.3469 126.857-41.0082C126.857-41.0082 132.221-41.4661 135.405-42.6564Z"/>
  </g>
  <g id="Ultralight-L" transform="matrix(1 0 0 1 471.074 1556)">
   <path d="M39.0217 32.1751C43.9235 37.15 48.4669 36.8752 53.6644 31.1078L117.085-38.159L100.612-54.74L30.5919 7.88256C24.8119 13.0051 24.5618 17.6508 29.4655 22.6188L39.0217 32.1751ZM134.214-42.4526C142.046-45.382 146.51-49.7504 149.317-57.6236C150.261-60.2719 150.738-64.681 150.738-64.681C151.55-68.8221 150.689-71.6004 147.464-74.7424L150.738-77.8503L136.426-91.5153L133.193-88.9353C116.47-105.49 87.5758-107.436 71.8967-91.7728C69.6071-89.4902 69.6049-87.084 70.9249-85.3865C71.9274-84.1727 73.7183-83.3865 75.9401-83.7357C88.278-85.7263 98.6668-85.2929 107.573-78.0212L102.509-67.1905C100.736-63.2603 101.393-60.164 104.226-57.264L118.777-42.5663C120.811-40.5321 122.562-40.1831 125.808-40.8328C125.808-40.8328 131.082-41.2828 134.214-42.4526Z"/>
  </g>
  <g id="Black-M" transform="matrix(1 0 0 1 2854.14 1126)">
   <path d="M35.6814 24.4531C40.5265 29.3653 48.1015 27.7019 53.237 22.0058L100.34-33.8685L80.9594-53.1974L24.4856-4.91418C18.7704 0.144501 18.9744 8.26863 23.8195 13.1758L35.6814 24.4531ZM122.721-41.1668C130.455-44.0584 134.87-48.3749 137.646-56.1497C138.58-58.7648 139.047-63.1193 139.047-63.1193C139.853-67.21 138.996-70.5069 135.817-73.6105L139.047-76.6789L124.903-90.176L121.711-87.6267C105.195-103.978 77.1668-102.95 61.6741-87.4801C58.5857-84.3957 59.7503-78.637 61.0501-76.9583C62.3263-75.3151 65.6249-72.9006 69.0131-73.9152C78.5295-76.8352 86.1253-77.2259 91.0295-74.519L88.3712-65.3603C86.6172-61.4793 90.4665-56.9493 93.2671-54.0843L107.467-41.278C109.485-39.2699 111.213-38.924 114.418-39.5676C114.418-39.5676 119.629-40.0108 122.721-41.1668Z"/>
  </g>
  <g id="Heavy-M" transform="matrix(1 0 0 1 2559.27 1126)">
   <path d="M34.7461 22.8954C39.4284 27.6458 46.4057 26.2501 51.3692 20.7416L98.318-34.4704L80.0723-52.5633L24.3676-4.69211C18.8456 0.200036 18.9511 7.48391 23.6335 12.2295L34.7461 22.8954ZM119.499-41.2918C126.973-44.0883 131.238-48.2626 133.922-55.7813C134.825-58.3102 135.276-62.5216 135.276-62.5216C136.053-66.4775 135.226-69.5534 132.153-72.5547L135.276-75.5223L121.608-88.5747L118.523-86.1096C102.563-101.922 75.3412-101.191 60.3725-86.2305C57.5564-83.4162 58.5143-78.2668 59.7711-76.6436C60.945-75.1449 63.8236-73.1424 66.8566-73.9878C76.1323-76.7827 83.7572-77.4478 89.6615-74.2815L86.7235-64.6911C85.028-60.9379 88.3143-56.7857 91.0201-54.0153L104.761-41.3995C106.708-39.4576 108.379-39.1229 111.476-39.7452C111.476-39.7452 116.512-40.174 119.499-41.2918Z"/>
  </g>
  <g id="Bold-M" transform="matrix(1 0 0 1 2264.62 1126)">
   <path d="M33.6998 21.153C38.2 25.7223 44.5088 24.626 49.2797 19.3273L96.0559-35.1437L79.08-51.854L24.2356-4.44369C18.9297 0.262159 18.9251 6.60609 23.4254 11.1709L33.6998 21.153ZM115.895-41.4316C123.077-44.1217 127.175-48.1369 129.755-55.3691C130.623-57.8017 131.058-61.8529 131.058-61.8529C131.801-65.6581 131.008-68.4868 128.056-71.3737L131.058-74.2286L117.922-86.7833L114.958-84.4125C99.6182-99.6225 73.2989-99.2232 58.9164-84.8326C56.405-82.3204 57.1318-77.8528 58.3405-76.2914C59.3998-74.9546 61.8085-73.413 64.4442-74.069C73.4508-76.724 81.1082-77.6959 88.1311-74.0158L84.8803-63.9425C83.2504-60.3324 85.9068-56.6028 88.5064-53.938L101.733-41.5355C103.602-39.6675 105.207-39.3453 108.185-39.9438C108.185-39.9438 113.025-40.3567 115.895-41.4316Z"/>
  </g>
  <g id="Semibold-M" transform="matrix(1 0 0 1 1969.32 1126)">
   <path d="M32.9785 19.9517C37.3531 24.3962 43.2011 23.5064 47.8393 18.3524L94.4963-35.6079L78.3958-51.365L24.1445-4.27244C18.9877 0.304986 18.9071 6.00093 23.2819 10.4411L32.9785 19.9517ZM113.411-41.528C120.392-44.1447 124.374-48.0503 126.883-55.085C127.727-57.4511 128.15-61.392 128.15-61.392C128.87-65.0932 128.1-67.7515 125.231-70.5595L128.15-73.3367L115.381-85.5483L112.499-83.2425C97.5882-98.0372 71.8911-97.8666 57.9126-83.8689C55.6113-81.565 56.1787-77.5673 57.3542-76.0487C58.3345-74.8234 60.4193-73.5995 62.7811-74.1249C71.6021-76.6835 79.2819-77.867 87.0761-73.8326L83.6096-63.4264C82.0249-59.9149 84.2471-56.4767 86.7734-53.8848L99.6461-41.6293C101.461-39.8122 103.021-39.4987 105.916-40.0807C105.916-40.0807 110.621-40.4826 113.411-41.528Z"/>
  </g>
  <g id="Medium-M" transform="matrix(1 0 0 1 1673.69 1126)">
   <path d="M32.4315 19.0409C36.711 23.3908 42.2095 22.6575 46.7471 17.6131L93.3138-35.9599L77.8771-50.9942L24.0755-4.14258C19.0317 0.33746 18.8935 5.54207 23.1732 9.88774L32.4315 19.0409ZM111.527-41.6011C118.356-44.1621 122.25-47.9846 124.705-54.8696C125.531-57.1853 125.945-61.0424 125.945-61.0424C126.647-64.6649 125.896-67.1939 123.088-69.9422L125.945-72.6604L113.454-84.6119L110.635-82.3554C96.049-96.8352 70.8235-96.8379 57.1515-83.1382C55.0094-80.9923 55.456-77.3509 56.6063-75.8646C57.5268-74.7239 59.366-73.7409 61.52-74.1673C70.2004-76.6528 77.8972-77.9967 86.2762-73.6937L82.6462-63.0351C81.0956-59.5983 82.9887-56.381 85.4595-53.8444L98.0635-41.7003C99.8375-39.9219 101.364-39.615 104.195-40.1845C104.195-40.1845 108.798-40.578 111.527-41.6011Z"/>
  </g>
  <g id="Regular-M" transform="matrix(1 0 0 1 1378.38 1126)">
   <path d="M31.7181 17.8528C35.8734 22.0793 40.9162 21.5502 45.3224 16.6489L91.7715-36.419L77.2005-50.5105L23.9855-3.9732C19.089 0.379817 18.8758 4.94356 23.0313 9.16597L31.7181 17.8528ZM109.07-41.6964C115.7-44.1849 119.479-47.8989 121.864-54.5886C122.667-56.8386 123.069-60.5865 123.069-60.5865C123.748-64.1062 123.02-66.4667 120.294-69.1369L123.069-71.7783L110.941-83.3905L108.204-81.1983C94.0413-95.2673 69.4311-95.4962 56.1587-82.1851C54.2243-80.2452 54.5133-77.0685 55.6309-75.6245C56.4732-74.5941 57.9921-73.9254 59.8752-74.2227C68.372-76.6127 76.091-78.1659 85.2328-73.5126L81.3894-62.5247C79.8836-59.1855 81.3472-56.2563 83.7456-53.7918L95.9993-41.793C97.7198-40.065 99.2015-39.7667 101.951-40.3199C101.951-40.3199 106.42-40.7026 109.07-41.6964Z"/>
  </g>
  <g id="Light-M" transform="matrix(1 0 0 1 1082.53 1126)">
   <path d="M31.2577 17.5861C35.3021 21.6972 39.8732 21.2661 44.1619 16.4989L91.4429-36.7536L77.4323-50.4593L23.8973-3.30889C19.1304 0.925063 18.9233 5.18999 22.9683 9.29672L31.2577 17.5861ZM107.494-41.4266C113.949-43.8473 117.629-47.4592 119.949-53.9661C120.73-56.1546 121.121-59.7998 121.121-59.7998C121.786-63.223 121.076-65.519 118.421-68.1161L121.121-70.6852L109.316-81.9797L106.651-79.8474C92.8618-93.5314 68.9409-94.1563 56.017-81.2095C54.1324-79.3227 54.3313-76.5527 55.4195-75.1486C56.2415-74.1461 57.7197-73.4958 59.5526-73.7848C68.3784-75.9122 76.1995-76.8802 84.6468-71.9232L80.7786-61.7398C79.3138-58.4918 80.4817-55.7268 82.8171-53.3298L94.7671-41.5206C96.4427-39.8397 97.8857-39.55 100.563-40.0878C100.563-40.0878 104.913-40.4599 107.494-41.4266Z"/>
  </g>
  <g id="Thin-M" transform="matrix(1 0 0 1 786.968 1126)">
   <path d="M30.6487 17.2332C34.5466 21.1919 38.4937 20.8903 42.6269 16.3005L91.0083-37.1961L77.7388-50.3915L23.7807-2.43027C19.1853 1.6462 18.9861 5.51592 22.8851 9.46965L30.6487 17.2332ZM105.408-41.0698C111.634-43.4008 115.182-46.8776 117.416-53.1428C118.168-55.2501 118.546-58.7592 118.546-58.7592C119.19-62.0548 118.505-64.2656 115.943-66.7661L118.546-69.2394L107.167-80.1139L104.597-78.0608C91.302-91.2354 68.2925-92.3841 55.8296-79.9193C54.0108-78.1027 54.0906-75.8704 55.1399-74.5191C55.935-73.5535 57.3593-72.9277 59.126-73.2057C68.3869-74.9858 76.343-75.1798 83.8719-69.8211L79.9708-60.7017C78.5603-57.5743 79.3369-55.0266 81.5891-52.7188L93.1375-41.1603C94.7538-39.5417 96.1454-39.2635 98.7261-39.7808C98.7261-39.7808 102.92-40.1389 105.408-41.0698Z"/>
  </g>
  <g id="Ultralight-M" transform="matrix(1 0 0 1 490.843 1126)">
   <path d="M30.3368 17.0525C34.1597 20.933 37.7871 20.6979 41.8407 16.199L90.7857-37.4228L77.8958-50.3568L23.7209-1.98025C19.2133 2.01556 19.0182 5.68286 22.8425 9.55823L30.3368 17.0525ZM104.34-40.887C110.448-43.172 113.929-46.5797 116.119-52.7211C116.855-54.7868 117.227-58.2262 117.227-58.2262C117.86-61.4565 117.188-63.6236 114.674-66.0746L117.227-68.4989L106.066-79.1582L103.544-77.1457C90.503-90.0594 67.9604-91.4764 55.7337-79.2584C53.9485-77.4779 53.9673-75.521 54.9967-74.1968C55.778-73.25 57.1748-72.6367 58.9075-72.9091C68.3912-74.5112 76.4166-74.3088 83.4749-68.7444L79.557-60.17C78.1743-57.1043 78.7506-54.668 80.9602-52.4059L92.3028-40.9757C93.8887-39.389 95.254-39.1167 97.7855-39.6235C97.7855-39.6235 101.899-39.9746 104.34-40.887Z"/>
  </g>
  <g id="Black-S" transform="matrix(1 0 0 1 2870.78 696)">
   <path d="M28.22 12C32.06 15.892 38.15 14.513 42.22 10L79.23-34L63.73-49.5L19.22-11.5C14.69-7.492 14.88-0.888 18.72 3L28.22 12ZM97.06-39.829C103.19-42.12 106.69-45.54 108.89-51.7C109.63-53.772 110-57.222 110-57.222C110.64-60.463 109.96-63.11 107.44-65.569L110-68L98.79-78.694L96.26-76.674C83.17-89.629 61-88.757 48.72-76.5C46.22-74.004 47.19-69.33 48.22-68C49.25-66.67 51.96-64.654 54.72-65.5C62.27-67.811 68.22-68 71.72-66L69.72-59C68.33-55.925 71.5-52.27 73.72-50L84.97-39.917C86.57-38.326 87.94-38.052 90.48-38.562C90.48-38.562 94.61-38.913 97.06-39.829Z"/>
  </g>
  <g id="Heavy-S" transform="matrix(1 0 0 1 2575.53 696)">
   <path d="M27.4789 10.7019C31.1938 14.4702 36.833 13.3076 40.7708 8.93791L77.5424-34.472L62.9417-48.9642L19.1303-11.395C14.749-7.51419 14.854-1.59063 18.5689 2.17393L27.4789 10.7019ZM94.5063-39.9704C100.436-42.1887 103.82-45.5001 105.949-51.4645C106.666-53.4706 107.024-56.8113 107.024-56.8113C107.64-59.9494 106.984-62.4156 104.546-64.7965L107.024-67.1506L96.1796-77.5047L93.7322-75.5491C81.0694-88.0927 59.5013-87.4237 47.6249-75.5559C45.3514-73.2841 46.1562-69.0793 47.1532-67.7916C48.0982-66.5817 50.4542-64.9157 52.9168-65.618C60.219-67.8556 66.1808-68.354 70.6249-66L68.3888-58.528C67.0437-55.5507 69.77-52.1978 71.9168-50L82.8128-40.0558C84.3585-38.5153 85.6836-38.2498 88.141-38.7435C88.141-38.7435 92.1365-39.0836 94.5063-39.9704Z"/>
  </g>
  <g id="Bold-S" transform="matrix(1 0 0 1 2280.46 696)">
   <path d="M26.65 9.25C30.225 12.88 35.36 11.9595 39.15 7.75L75.655-35L62.06-48.365L19.03-11.2775C14.815-7.539 14.825-2.3765 18.4 1.25L26.65 9.25ZM91.65-40.1285C97.355-42.2655 100.61-45.4555 102.66-51.201C103.35-53.1335 103.695-56.352 103.695-56.352C104.285-59.375 103.655-61.639 101.31-63.9325L103.695-66.2005L93.26-76.1745L90.905-74.291C78.72-86.3745 57.825-85.9325 46.4-74.5C44.38-72.479 45-68.799 45.96-67.5585C46.81-66.483 48.77-65.2085 50.9-65.75C57.925-67.9055 63.9-68.75 69.4-66L66.9-58C65.605-55.132 67.835-52.117 69.9-50L80.4-40.211C81.885-38.727 83.16-38.471 85.525-38.9465C85.525-38.9465 89.37-39.2745 91.65-40.1285Z"/>
  </g>
  <g id="Semibold-S" transform="matrix(1 0 0 1 1984.87 696)">
   <path d="M26.0785 8.249C29.5571 11.7836 34.3444 11.03 38.0325 6.931L74.3537-35.364L61.4521-47.9519L18.9608-11.1965C14.8605-7.55611 14.805-2.91831 18.2835 0.613L26.0785 8.249ZM89.6808-40.2375C95.2311-42.3185 98.3969-45.4247 100.392-51.0194C101.064-52.9011 101.4-56.0353 101.4-56.0353C101.972-58.979 101.36-61.1036 99.0787-63.3368L101.4-65.5455L91.2471-75.2574L88.9558-73.4236C77.1002-85.1899 56.6693-84.9044 45.5555-73.772C43.7102-71.9239 44.2028-68.6057 45.1374-67.3978C45.9218-66.4149 47.6088-65.4103 49.5095-65.841C56.3434-67.9399 62.3275-69.023 68.5555-66L65.8735-57.636C64.6131-54.8433 66.5009-52.0613 68.5095-50L78.7365-40.318C80.1797-38.873 81.4201-38.6235 83.7214-39.0865C83.7214-39.0865 87.4626-39.4061 89.6808-40.2375Z"/>
  </g>
  <g id="Medium-S" transform="matrix(1 0 0 1 1689.02 696)">
   <path d="M25.6452 7.49C29.0506 10.9523 33.5744 10.3253 37.1852 6.31L73.367-35.64L60.9912-47.6386L18.9084-11.1351C14.895-7.56908 14.7898-3.32914 18.1952 0.13L25.6452 7.49ZM88.1876-40.3202C93.6206-42.3586 96.7188-45.4014 98.6728-50.8816C99.3308-52.7249 99.6598-55.7952 99.6598-55.7952C100.218-58.6787 99.6198-60.6976 97.3868-62.8851L99.6598-65.0488L89.7208-74.562L87.4778-72.7659C75.872-84.2916 55.793-84.1248 44.9152-73.22C43.2024-71.503 43.5984-68.4592 44.5136-67.2759C45.2484-66.3633 46.7284-65.5634 48.4552-65.91C55.1442-67.966 61.1352-69.23 67.9152-66L65.0952-57.36C63.861-54.6245 65.4894-52.0191 67.4552-50L77.4752-40.3992C78.8866-38.9836 80.1008-38.7392 82.3538-39.1926C82.3538-39.1926 86.0164-39.5059 88.1876-40.3202Z"/>
  </g>
  <g id="Regular-S" transform="matrix(1 0 0 1 1393.42 696)">
   <path d="M25.08 6.5C28.39 9.868 32.57 9.406 36.08 5.5L72.08-36L60.39-47.23L18.84-11.055C14.94-7.586 14.77-3.865 18.08-0.5L25.08 6.5ZM86.24-40.428C91.52-42.411 94.53-45.371 96.43-50.702C97.07-52.495 97.39-55.482 97.39-55.482C97.93-58.287 97.35-60.168 95.18-62.296L97.39-64.401L87.73-73.655L85.55-71.908C74.27-83.12 54.65-83.108 44.08-72.5C42.54-70.954 42.81-68.268 43.7-67.117C44.37-66.296 45.58-65.763 47.08-66C53.58-68 59.58-69.5 67.08-66L64.08-57C62.88-54.339 64.17-51.964 66.08-50L75.83-40.505C77.2-39.128 78.38-38.89 80.57-39.331C80.57-39.331 84.13-39.636 86.24-40.428Z"/>
  </g>
  <g id="Light-S" transform="matrix(1 0 0 1 1097.47 696)">
   <path d="M24.6727 6.264C27.8847 9.53 31.6473 9.15467 35.0533 5.36733L71.7893-36.296L60.595-47.1847L18.762-10.4673C14.9767-7.10367 14.812-3.647 18.0243-0.384333L24.6727 6.264ZM84.8453-40.1893C89.9713-42.1123 92.8933-44.982 94.736-50.1513C95.3563-51.89 95.6673-54.786 95.6673-54.786C96.1937-57.5057 95.6303-59.3297 93.5227-61.393L95.6673-63.434L86.2923-72.407L84.176-70.713C73.2267-81.5843 54.2163-81.9227 43.9547-71.637C42.4587-70.138 42.649-67.8117 43.513-66.696C44.165-65.8997 45.339-65.383 46.7947-65.6127C53.5857-67.3803 59.676-68.3627 66.5617-64.594L63.5397-56.3057C62.376-53.7253 63.4043-51.4957 65.2587-49.5913L74.74-40.264C76.0703-38.9287 77.216-38.6983 79.3417-39.1257C79.3417-39.1257 82.7967-39.4213 84.8453-40.1893Z"/>
  </g>
  <g id="Thin-S" transform="matrix(1 0 0 1 801.776 696)">
   <path d="M24.1339 5.95187C27.2163 9.08297 30.427 8.82226 33.6955 5.19187L71.4049-36.6875L60.8661-47.1247L18.6588-9.6901C15.0252-6.46574 14.8675-3.35868 17.9507-0.231355L24.1339 5.95187ZM83.0008-39.8737C87.9231-41.7173 90.7287-44.4675 92.4955-49.423C93.0899-51.0898 93.389-53.8655 93.389-53.8655C93.8972-56.4723 93.3559-58.2209 91.3307-60.1987L93.389-62.1551L84.3909-70.7564L82.3588-69.1325C71.8468-79.5533 53.6428-80.355 43.7889-70.4956C42.3511-69.0588 42.4361-67.2081 43.2657-66.1392C43.8939-65.3755 45.0203-64.8804 46.4173-65.1004C53.5932-66.5608 59.803-66.8585 65.8761-62.7345L62.825-55.3874C61.7094-52.9137 62.3917-50.8763 64.1724-49.0508L73.2984-39.9453C74.5763-38.665 75.6765-38.4448 77.7171-38.8541C77.7171-38.8541 81.0332-39.1374 83.0008-39.8737Z"/>
  </g>
  <g id="Ultralight-S" transform="matrix(1 0 0 1 505.583 696)">
   <path d="M23.858 5.792C26.874 8.854 29.802 8.652 33 5.102L71.208-36.888L61.005-47.094L18.606-9.292C15.05-6.139 14.896-3.211 17.913-0.153L23.858 5.792ZM82.056-39.712C86.874-41.515 89.62-44.204 91.348-49.05C91.929-50.68 92.222-53.394 92.222-53.394C92.721-55.943 92.191-57.653 90.208-59.587L92.222-61.5L83.417-69.911L81.428-68.323C71.14-78.513 53.349-79.552 43.704-69.911C42.296-68.506 42.327-66.899 43.139-65.854C43.755-65.107 44.857-64.623 46.224-64.838C53.597-66.141 59.868-66.088 65.525-61.782L62.459-54.917C61.368-52.498 61.873-50.559 63.616-48.774L72.56-39.782C73.811-38.53 74.888-38.315 76.885-38.715C76.885-38.715 80.13-38.992 82.056-39.712Z"/>
  </g>
 </g>
</svg>
